<svg xmlns="http://www.w3.org/2000/svg" width="500" height="500"><defs><clipPath id="a"><path d="M641.262 521.804h3.199c2.976 0 5.151.364 6.521 1.09 1.371.727 2.057 2.18 2.057 4.36 0 2.062-.68 3.539-2.039 4.43-1.359.89-3.41 1.335-6.152 1.335h-3.586v-11.215zm.034 14.485h5.977l6.364 13.149h5.132l-7.593-13.887c1.242-.352 2.285-.862 3.129-1.53.844-.667 1.516-1.388 2.021-2.162.504-.773.849-1.547 1.037-2.32.187-.773.282-1.441.282-2.004 0-3.094-.985-5.385-2.954-6.873-1.969-1.488-4.91-2.232-8.824-2.232h-9.105v31.008h4.534v-13.149zm-21.55 5.678a27.522 27.522 0 002.795 6.609 27.972 27.972 0 004.341 5.608 28 28 0 005.608 4.341 27.539 27.539 0 006.609 2.795c2.357.657 4.811.984 7.366.984 2.554 0 5.009-.327 7.366-.984a27.514 27.514 0 006.608-2.795 27.972 27.972 0 005.608-4.341 27.977 27.977 0 004.342-5.608 27.56 27.56 0 002.794-6.609 27.33 27.33 0 00.985-7.365c0-2.555-.329-5.01-.985-7.366a27.56 27.56 0 00-2.794-6.609 27.942 27.942 0 00-4.342-5.607 27.982 27.982 0 00-5.608-4.343 27.552 27.552 0 00-6.608-2.794 27.343 27.343 0 00-7.366-.985c-2.555 0-5.009.329-7.366.985a27.576 27.576 0 00-6.609 2.794 28.01 28.01 0 00-5.608 4.343 27.937 27.937 0 00-4.341 5.607 27.522 27.522 0 00-2.795 6.609 27.332 27.332 0 00-.984 7.366c0 2.554.328 5.009.984 7.365zm5.274-16.471c1.218-2.859 2.882-5.367 4.991-7.524 2.11-2.156 4.577-3.86 7.401-5.115 2.825-1.254 5.842-1.881 9.053-1.881 3.21 0 6.228.627 9.053 1.881 2.823 1.255 5.29 2.959 7.4 5.115 2.109 2.157 3.773 4.665 4.992 7.524 1.218 2.859 1.828 5.895 1.828 9.106 0 3.21-.61 6.246-1.828 9.105-1.219 2.86-2.883 5.367-4.992 7.523-2.11 2.157-4.577 3.862-7.4 5.116-2.825 1.254-5.843 1.88-9.053 1.88-3.211 0-6.228-.626-9.053-1.88-2.824-1.254-5.291-2.959-7.401-5.116-2.109-2.156-3.773-4.663-4.991-7.523-1.219-2.859-1.828-5.895-1.828-9.105 0-3.211.609-6.247 1.828-9.106"/></clipPath></defs><path d="M0 0h500v500H0z" fill="#ececec"/><path d="M384.834 249.997c0 74.702-60.552 135.254-135.246 135.254-74.695 0-135.25-60.552-135.25-135.254 0-74.695 60.555-135.248 135.25-135.248 74.694 0 135.246 60.553 135.246 135.248z" fill="#343226"/><path d="M375.507 249.997c0 69.55-56.378 125.926-125.919 125.926-69.544 0-125.922-56.377-125.922-125.926 0-69.544 56.378-125.92 125.922-125.92 69.541 0 125.919 56.376 125.919 125.92z" fill="#ffd441"/><path d="M287.486 244.711c0 20.756-16.829 37.58-37.585 37.58-20.76 0-37.584-16.824-37.584-37.58 0-20.757 16.825-37.585 37.584-37.585 20.756 0 37.585 16.828 37.585 37.585z"/><path d="M128.4 262.706h.005c4.403-.112 4.81-.06 9.306-.442 12.065-1.027 24.034-3.288 35.87-5.769 11.3-2.368 22.518-5.114 33.682-8.05a41.302 41.302 0 01-.189-3.734 41.045 41.045 0 015.273-20.144c-18.184-9.356-36.711-18.12-55.91-25.204-9.47-3.493-19.272-6.518-29.346-7.55-25.08-1.993-30.498 27.775-16.803 39.833l.116.1c-5.47 12.1.213 30.464 15.911 30.93z" fill="#ffd441"/><path d="M126.38 260.482c-6.803-.201-10.631-4.085-12.646-7.313-3.68-5.892-4.213-14.14-1.33-20.518l.668-1.479-1.333-1.174c-6.348-5.588-8.417-16.216-4.814-24.723 3.35-7.909 10.637-12.017 19.993-11.274 22.341 1.775 64.04 22.055 82.657 31.618-2.936 5.959-4.695 12.455-4.695 19.092l.102 2.058c-17.791 4.66-57.534 14.343-78.602 13.713zm-23.497-56.917c-1.447 3.413-2.141 7.064-2.141 10.671 0 6.839 2.585 13.44 7.2 18.05-1.098 2.92-1.752 6.056-1.752 9.249 0 4.945 1.294 9.912 3.822 13.962 3.65 5.842 9.415 9.169 16.24 9.374 21.468.639 60.322-8.689 81.573-14.304l1.72-.455-.276-5.4c0-6.655 1.726-13.25 4.992-19.071l1.11-1.98-2.017-1.042c-17.958-9.292-62.299-31.104-86.09-32.994-11.193-.89-20.309 4.32-24.381 13.94z"/><path d="M371.595 262.706h.006l2.084-.03c15.697-.466 21.381-18.83 15.912-30.93l.115-.1c13.696-12.058 8.277-41.826-16.804-39.833-2.944.302-3.466.31-7.045 1.008-14.482 2.824-29.975 9.258-43.39 15.056-11.812 5.105-23.383 10.797-34.82 16.69a41.045 41.045 0 015.273 20.144c0 1.26-.078 2.504-.19 3.734 24.449 6.24 49.134 12.432 74.384 14.147z" fill="#ffd441"/><path d="M373.085 194.001c9.353-.743 16.64 3.365 19.992 11.274 3.6 8.507 1.53 19.137-4.814 24.723l-1.221 1.073.553 1.58c2.885 6.379 2.349 14.626-1.329 20.518-2.015 3.228-5.843 7.112-12.646 7.313-21.068.63-60.81-9.054-78.602-13.713l.102-2.058c0-6.637-1.757-13.133-4.693-19.092 18.612-9.563 60.312-29.843 82.658-31.618zm-.352-4.376c-23.79 1.89-68.13 23.702-86.087 32.994l-2.019 1.041 1.11 1.98a39.06 39.06 0 014.994 19.071l-.27 5.314 1.714.542c21.25 5.615 60.103 14.943 81.575 14.304 6.824-.205 12.589-3.532 16.236-9.374 2.53-4.05 3.824-9.017 3.824-13.962 0-3.193-.65-6.33-1.749-9.248 4.613-4.61 7.197-11.212 7.197-18.051 0-3.607-.693-7.258-2.142-10.671-4.073-9.62-13.186-14.83-24.383-13.94zM271.969 210.755c3.291-5.441 5.26-11.404 5.26-16.243 0-12.17-12.286-22.036-27.435-22.036-15.153 0-27.434 9.866-27.434 22.036 0 4.867 1.99 10.87 5.315 16.338a40.302 40.302 0 0122.226-6.66c8.145 0 15.715 2.427 22.068 6.565zM220.421 313.12c0 16.033 12.996 29.025 29.026 29.025 16.033 0 29.024-12.992 29.024-29.024h-58.05zM278.471 282.921c0-16.031-12.996-29.023-29.024-29.023-16.032 0-29.024 12.992-29.024 29.023h58.048z"/><path d="M232.875 242.208c.677-.531 1.314-1.08 1.657-1.68a5.062 5.062 0 00.645-2.51c0-1.406-.48-2.636-1.417-3.67-.92-1.015-2.18-1.722-3.723-2.091-1.08-.274-2.724-.405-5.013-.405h-3.862-.424v23.109h7.3c2.038 0 3.658-.274 4.837-.806a7.038 7.038 0 002.924-2.456 6.325 6.325 0 001.144-3.666c0-1.388-.37-2.61-1.106-3.636-.63-.875-1.723-1.572-2.962-2.189z" fill="#ffd441"/><path d="M226.995 236.728h-.803v3.84h.616c1.054 0 1.84-.188 2.325-.559.454-.353.677-.823.677-1.434 0-.561-.207-.994-.634-1.322-.456-.345-1.192-.525-2.181-.525zM226.75 245.18h-.558v4.902h.759c2.337 0 3.331-.328 3.755-.6.557-.369.825-.893.825-1.6 0-.824-.33-1.458-1.015-1.94-.725-.504-1.994-.761-3.766-.761z"/><path d="M242.828 231.852v23.109H257v-5.013h-8.715v-4.137H257v-4.968h-8.715v-4.025H257v-4.966h-.424-13.748zM264.03 231.852v23.109h14.176v-5.013h-8.719v-4.137h8.719v-4.968h-8.719v-4.025h8.719v-4.966h-.42-13.757z" fill="#ffd441"/><path d="M156.03 286.27h-5.062v23.841h5.94v-23.84h-.878zM185.234 286.27h-5.062v12.452l-8.108-12.452h-5.37v23.841h5.942v-12.409l8.08 12.41h5.397V286.27h-.879zM208.131 286.27h-11.852v23.841h5.94v-8.74h6.79v-5.837h-6.79v-3.426h6.79v-5.838h-.878zM222.864 287.393a12.235 12.235 0 00-4.53 4.53c-1.096 1.895-1.651 4-1.651 6.26 0 3.368 1.19 6.322 3.532 8.774 2.355 2.456 5.348 3.703 8.892 3.703 3.393 0 6.318-1.213 8.694-3.609 2.375-2.388 3.58-5.346 3.58-8.792 0-3.476-1.22-6.463-3.626-8.886-2.408-2.422-5.328-3.652-8.678-3.652-2.205 0-4.297.561-6.213 1.672z"/><path d="M224.963 303.352c-1.553-1.26-2.305-2.932-2.305-5.115 0-1.975.6-3.548 1.837-4.809 1.23-1.255 2.71-1.87 4.523-1.87 1.789 0 3.268.627 4.52 1.921 1.258 1.295 1.868 2.843 1.868 4.724 0 1.895-.606 3.438-1.854 4.72-1.238 1.278-2.698 1.9-4.46 1.9-1.567 0-2.917-.482-4.13-1.471z" fill="#ffd441"/><path d="M251.593 286.27h-.88v23.841h5.944v-7.514l4.012 7.514h6.538l-5.59-10.463c1.076-.535 2.13-1.084 2.743-1.942.806-1.127 1.213-2.52 1.213-4.15 0-1.538-.364-2.901-1.08-4.05-.725-1.161-1.698-2.006-2.898-2.516-1.157-.484-2.975-.72-5.55-.72h-4.452zM296.535 286.27h-4.71s-3.353 10.01-4.528 13.511l-4.5-13.51h-5.406l-4.153 23.84h5.855s1.277-7.347 1.96-11.247l3.745 11.247h4.972l3.764-11.226c.66 3.914 1.9 11.226 1.9 11.226h5.846l-4.003-23.84h-.742zM322.473 286.27h-12.916v23.841h13.795v-5.872h-7.853v-3.317h7.853v-5.839h-7.853v-2.975h7.853v-5.838h-.879z"/><path d="M255.779 295.79h1.315c1.338 0 2.26-.176 2.76-.531.507-.352.76-.939.76-1.757 0-.485-.128-.906-.377-1.265a2.047 2.047 0 00-1.004-.772c-.42-.158-1.187-.236-2.305-.236h-1.15v4.561z" fill="#ffd441"/><path d="M333.237 286.262h-.886v23.857h5.935c2.972 0 5.03-.19 6.29-.58 1.28-.398 2.481-1.122 3.573-2.152 1.09-1.033 1.948-2.336 2.553-3.874.603-1.518.91-3.205.91-5.013 0-2.532-.548-4.79-1.626-6.71-1.099-1.945-2.52-3.37-4.226-4.236-1.695-.868-4.165-1.292-7.546-1.292h-4.977z"/><path d="M337.416 291.23v13.922h1.955c1.92 0 3.314-.218 4.18-.66.866-.441 1.577-1.183 2.126-2.225.554-1.042.827-2.323.827-3.844 0-2.342-.656-4.159-1.967-5.45-1.184-1.165-3.077-1.744-5.692-1.744h-1.429z" fill="#ffd441"/></svg>