<?xml version="1.0" encoding="UTF-8" standalone="no"?>
<!-- Created with Inkscape (http://www.inkscape.org/) -->

<svg
   xmlns:dc="http://purl.org/dc/elements/1.1/"
   xmlns:cc="http://creativecommons.org/ns#"
   xmlns:rdf="http://www.w3.org/1999/02/22-rdf-syntax-ns#"
   xmlns:svg="http://www.w3.org/2000/svg"
   xmlns="http://www.w3.org/2000/svg"
   xmlns:sodipodi="http://sodipodi.sourceforge.net/DTD/sodipodi-0.dtd"
   xmlns:inkscape="http://www.inkscape.org/namespaces/inkscape"
   width="500px"
   height="500px"
   viewBox="0 0 500 500"
   version="1.1"
   id="SVGRoot"
   inkscape:version="0.92.3 (2405546, 2018-03-11)"
   sodipodi:docname="bip.svg"
   inkscape:export-filename="/home/jack/repos/portfolio2/img/bip_logo.png"
   inkscape:export-xdpi="95.999992"
   inkscape:export-ydpi="95.999992">
  <sodipodi:namedview
     id="base"
     pagecolor="#ffffff"
     bordercolor="#666666"
     borderopacity="1.0"
     inkscape:pageopacity="0.0"
     inkscape:pageshadow="2"
     inkscape:zoom="1.4481547"
     inkscape:cx="380.28993"
     inkscape:cy="209.9496"
     inkscape:document-units="px"
     inkscape:current-layer="layer1"
     showgrid="false"
     inkscape:window-width="1853"
     inkscape:window-height="1025"
     inkscape:window-x="67"
     inkscape:window-y="27"
     inkscape:window-maximized="1" />
  <defs
     id="defs1153">
    <clipPath
       id="Clip_1">
      <path
         id="path1712"
         d="M2575,2346 L2813,2346 L2813,2109 L2575,2109 z" />
    </clipPath>
    <clipPath
       id="Clip_2">
      <path
         id="path1715"
         d="M641.262,521.804 L644.461,521.804 C647.437,521.804 649.612,522.168 650.982,522.894 C652.353,523.621 653.039,525.074 653.039,527.254 C653.039,529.316 652.359,530.793 651,531.684 C649.641,532.574 647.59,533.019 644.848,533.019 L641.262,533.019 L641.262,521.804 z M641.296,536.289 L647.273,536.289 L653.637,549.438 L658.769,549.438 L651.176,535.551 C652.418,535.199 653.461,534.689 654.305,534.021 C655.149,533.354 655.821,532.633 656.326,531.859 C656.83,531.086 657.175,530.312 657.363,529.539 C657.55,528.766 657.645,528.098 657.645,527.535 C657.645,524.441 656.66,522.15 654.691,520.662 C652.722,519.174 649.781,518.43 645.867,518.43 L636.762,518.43 L636.762,549.438 L641.296,549.438 L641.296,536.289 z M619.746,541.967 C620.402,544.322 621.334,546.526 622.541,548.576 C623.748,550.627 625.195,552.496 626.882,554.184 C628.571,555.871 630.439,557.318 632.49,558.525 C634.541,559.732 636.744,560.664 639.099,561.32 C641.456,561.977 643.91,562.304 646.465,562.304 C649.019,562.304 651.474,561.977 653.831,561.32 C656.186,560.664 658.389,559.732 660.439,558.525 C662.49,557.318 664.359,555.871 666.047,554.184 C667.735,552.496 669.181,550.627 670.389,548.576 C671.595,546.526 672.527,544.322 673.183,541.967 C673.839,539.611 674.168,537.156 674.168,534.602 C674.168,532.047 673.839,529.592 673.183,527.236 C672.527,524.88 671.595,522.678 670.389,520.627 C669.181,518.576 667.735,516.707 666.047,515.02 C664.359,513.332 662.49,511.885 660.439,510.677 C658.389,509.471 656.186,508.539 653.831,507.883 C651.474,507.227 649.019,506.898 646.465,506.898 C643.91,506.898 641.456,507.227 639.099,507.883 C636.744,508.539 634.541,509.471 632.49,510.677 C630.439,511.885 628.571,513.332 626.882,515.02 C625.195,516.707 623.748,518.576 622.541,520.627 C621.334,522.678 620.402,524.88 619.746,527.236 C619.09,529.592 618.762,532.047 618.762,534.602 C618.762,537.156 619.09,539.611 619.746,541.967 z M625.02,525.496 C626.238,522.637 627.902,520.129 630.011,517.972 C632.121,515.816 634.588,514.112 637.412,512.857 C640.237,511.603 643.254,510.976 646.465,510.976 C649.675,510.976 652.693,511.603 655.518,512.857 C658.341,514.112 660.808,515.816 662.918,517.972 C665.027,520.129 666.691,522.637 667.91,525.496 C669.128,528.355 669.738,531.391 669.738,534.602 C669.738,537.812 669.128,540.848 667.91,543.707 C666.691,546.567 665.027,549.074 662.918,551.23 C660.808,553.387 658.341,555.092 655.518,556.346 C652.693,557.6 649.675,558.226 646.465,558.226 C643.254,558.226 640.237,557.6 637.412,556.346 C634.588,555.092 632.121,553.387 630.011,551.23 C627.902,549.074 626.238,546.567 625.02,543.707 C623.801,540.848 623.192,537.812 623.192,534.602 C623.192,531.391 623.801,528.355 625.02,525.496" />
    </clipPath>
  </defs>
  <metadata
     id="metadata1156">
    <rdf:RDF>
      <cc:Work
         rdf:about="">
        <dc:format>image/svg+xml</dc:format>
        <dc:type
           rdf:resource="http://purl.org/dc/dcmitype/StillImage" />
        <dc:title></dc:title>
      </cc:Work>
    </rdf:RDF>
  </metadata>
  <g
     id="layer1"
     inkscape:groupmode="layer"
     inkscape:label="Layer 1">
    <path
       style="opacity:1;fill:#ececec;fill-opacity:1;stroke:none;stroke-width:19.55471611;stroke-linecap:round;stroke-miterlimit:4;stroke-dasharray:none;stroke-opacity:1"
       d="M 0,0 H 500 V 500 H 0 Z"
       id="rect1816"
       inkscape:connector-curvature="0" />
    <g
       id="Layer_1"
       transform="matrix(0.5306806,0,0,0.5306806,39.560292,87.387436)">
      <path
         id="path1720"
         d="m 650.625,306.417 c 0,140.767 -114.103,254.869 -254.854,254.869 -140.754,0 -254.861,-114.102 -254.861,-254.869 0,-140.754 114.107,-254.857 254.861,-254.857 140.751,0 254.854,114.103 254.854,254.857 z"
         inkscape:connector-curvature="0"
         style="fill:#343226;fill-opacity:1" />
      <path
         id="path1722"
         d="m 633.048,306.417 c 0,131.057 -106.236,237.292 -237.277,237.292 -131.048,0 -237.284,-106.235 -237.284,-237.292 0,-131.046 106.236,-237.281 237.284,-237.281 131.041,0 237.277,106.235 237.277,237.281 z"
         inkscape:connector-curvature="0"
         style="fill:#ffd441" />
      <path
         id="path1724"
         d="m 467.185,296.457 c 0,39.111 -31.712,70.815 -70.824,70.815 -39.119,0 -70.823,-31.704 -70.823,-70.815 0,-39.115 31.704,-70.824 70.823,-70.824 39.112,0 70.824,31.709 70.824,70.824 z"
         inkscape:connector-curvature="0"
         style="fill:#000000" />
      <path
         id="path1726"
         d="m 167.406,330.366 h 0.011 c 8.297,-0.212 9.063,-0.112 17.535,-0.833 22.736,-1.936 45.29,-6.197 67.592,-10.871 21.293,-4.463 42.433,-9.637 63.471,-15.17 -0.21,-2.318 -0.356,-4.66 -0.356,-7.035 0,-13.796 3.635,-26.728 9.935,-37.96 -34.264,-17.629 -69.177,-34.146 -105.355,-47.493 -17.843,-6.582 -36.315,-12.283 -55.298,-14.228 -47.261,-3.755 -57.471,52.339 -31.664,75.061 0,0 0.219,0.19 0.219,0.19 -10.308,22.798 0.402,57.403 29.983,58.283 z"
         inkscape:connector-curvature="0"
         style="fill:#ffd441" />
      <path
         id="path1728"
         d="m 163.601,326.174 c -12.82,-0.379 -20.033,-7.697 -23.83,-13.779 -6.934,-11.103 -7.939,-26.644 -2.508,-38.664 0,0 1.261,-2.787 1.261,-2.787 0,0 -2.512,-2.213 -2.512,-2.213 -11.963,-10.529 -15.861,-30.557 -9.072,-46.587 6.313,-14.903 20.045,-22.645 37.674,-21.244 42.1,3.344 120.677,41.559 155.758,59.579 -5.533,11.229 -8.849,23.47 -8.849,35.978 0,0 0.097,1.942 0.194,3.877 -33.526,8.78 -108.416,27.027 -148.116,25.84 z M 119.323,218.921 c -2.726,6.433 -4.034,13.312 -4.034,20.109 0,12.887 4.871,25.327 13.566,34.014 -2.068,5.501 -3.3,11.41 -3.3,17.427 0,9.318 2.439,18.679 7.202,26.31 6.877,11.008 17.741,17.277 30.601,17.664 40.456,1.204 113.67,-16.373 153.715,-26.954 0,0 3.242,-0.857 3.242,-0.857 0,0 -0.52,-10.177 -0.52,-10.177 0,-12.54 3.251,-24.967 9.406,-35.936 0,0 2.092,-3.732 2.092,-3.732 0,0 -3.801,-1.963 -3.801,-1.963 -33.84,-17.508 -117.394,-58.611 -162.224,-62.173 -21.094,-1.676 -38.271,8.142 -45.945,26.268 z"
         inkscape:connector-curvature="0"
         style="fill:#000000" />
      <path
         id="path1730"
         d="m 625.677,330.366 h 0.011 l 3.927,-0.056 c 29.58,-0.88 40.291,-35.485 29.984,-58.283 0,0 0.217,-0.19 0.217,-0.19 25.809,-22.722 15.598,-78.816 -31.664,-75.061 -5.549,0.569 -6.532,0.586 -13.276,1.901 -27.289,5.321 -56.485,17.444 -81.763,28.37 -22.259,9.62 -44.062,20.345 -65.613,31.45 6.3,11.232 9.935,24.164 9.935,37.96 0,2.375 -0.146,4.717 -0.356,7.035 46.069,11.76 92.585,23.427 140.165,26.659 z"
         inkscape:connector-curvature="0"
         style="fill:#ffd441" />
      <path
         id="path1732"
         d="m 628.484,200.9 c 17.625,-1.401 31.357,6.341 37.674,21.244 6.784,16.03 2.883,36.062 -9.072,46.587 0,0 -2.301,2.023 -2.301,2.023 0,0 1.042,2.977 1.042,2.977 5.436,12.02 4.426,27.561 -2.504,38.664 -3.797,6.082 -11.011,13.4 -23.83,13.779 -39.7,1.187 -114.587,-17.06 -148.116,-25.84 0.097,-1.935 0.193,-3.877 0.193,-3.877 0,-12.508 -3.311,-24.749 -8.844,-35.978 35.073,-18.02 113.65,-56.235 155.758,-59.579 z m -0.662,-8.247 c -44.83,3.562 -128.384,44.665 -162.22,62.173 0,0 -3.805,1.963 -3.805,1.963 0,0 2.092,3.732 2.092,3.732 6.155,10.969 9.41,23.396 9.41,35.936 0,0 -0.509,10.012 -0.509,10.012 0,0 3.231,1.022 3.231,1.022 40.041,10.581 113.256,28.158 153.716,26.954 12.859,-0.387 23.723,-6.656 30.596,-17.664 4.767,-7.631 7.206,-16.992 7.206,-26.31 0,-6.017 -1.227,-11.926 -3.296,-17.427 8.692,-8.687 13.562,-21.127 13.562,-34.014 0,-6.797 -1.307,-13.676 -4.037,-20.109 -7.674,-18.126 -24.848,-27.944 -45.946,-26.268 z"
         inkscape:connector-curvature="0"
         style="fill:#000000" />
      <path
         id="path1734"
         d="m 437.944,232.471 c 6.203,-10.254 9.912,-21.49 9.912,-30.609 0,-22.933 -23.151,-41.523 -51.697,-41.523 -28.554,0 -51.696,18.59 -51.696,41.523 0,9.171 3.748,20.484 10.016,30.787 12.027,-7.912 26.406,-12.548 41.882,-12.548 15.348,0 29.613,4.571 41.583,12.37 z"
         inkscape:connector-curvature="0"
         style="fill:#000000" />
      <path
         id="path1736"
         d="m 340.809,425.366 c 0,30.21 24.49,54.692 54.696,54.692 30.211,0 54.692,-24.482 54.692,-54.692 0,0 -109.388,0 -109.388,0 z"
         inkscape:connector-curvature="0"
         style="fill:#000000" />
      <path
         id="path1738"
         d="m 450.197,368.459 c 0,-30.21 -24.49,-54.691 -54.692,-54.691 -30.21,0 -54.693,24.481 -54.693,54.691 0,0 109.385,0 109.385,0 z"
         inkscape:connector-curvature="0"
         style="fill:#000000" />
      <path
         id="path1740"
         d="m 364.277,291.74 c 1.276,-1.001 2.476,-2.035 3.122,-3.166 0.796,-1.422 1.216,-3.001 1.216,-4.73 0,-2.649 -0.905,-4.968 -2.67,-6.914 -1.733,-1.915 -4.107,-3.247 -7.015,-3.942 -2.035,-0.517 -5.133,-0.763 -9.447,-0.763 0,0 -7.278,0 -7.278,0 0,0 -0.799,0 -0.799,0 0,0 0,43.546 0,43.546 0,0 13.756,0 13.756,0 3.841,0 6.894,-0.517 9.115,-1.519 2.234,-1.018 4.096,-2.568 5.509,-4.628 1.434,-2.073 2.157,-4.395 2.157,-6.907 0,-2.617 -0.698,-4.919 -2.084,-6.853 -1.188,-1.648 -3.248,-2.961 -5.582,-4.124 z"
         inkscape:connector-curvature="0"
         style="fill:#ffd441" />
      <path
         id="path1742"
         d="m 353.196,281.413 c 0,0 -0.829,0 -1.512,0 0,1.195 0,6.042 0,7.237 0.55,0 1.16,0 1.16,0 1.987,0 3.469,-0.355 4.382,-1.054 0.856,-0.666 1.276,-1.551 1.276,-2.702 0,-1.058 -0.391,-1.873 -1.195,-2.492 -0.86,-0.65 -2.246,-0.989 -4.111,-0.989 z"
         inkscape:connector-curvature="0"
         style="fill:#000000" />
      <path
         id="path1744"
         d="m 352.735,297.341 c 0,0 -0.537,0 -1.051,0 0,1.264 0,7.973 0,9.237 0.663,0 1.43,0 1.43,0 4.403,0 6.277,-0.618 7.076,-1.131 1.05,-0.695 1.555,-1.684 1.555,-3.017 0,-1.551 -0.622,-2.746 -1.914,-3.655 -1.365,-0.948 -3.757,-1.434 -7.096,-1.434 z"
         inkscape:connector-curvature="0"
         style="fill:#000000" />
      <path
         id="path1746"
         d="m 383.033,272.225 c 0,0 0,43.546 0,43.546 0,0 26.704,0 26.704,0 0,0 0,-9.447 0,-9.447 0,0 -14.979,0 -16.421,0 0,-1.212 0,-6.584 0,-7.795 1.442,0 16.421,0 16.421,0 0,0 0,-9.362 0,-9.362 0,0 -14.979,0 -16.421,0 0,-1.204 0,-6.381 0,-7.585 1.442,0 16.421,0 16.421,0 0,0 0,-9.357 0,-9.357 0,0 -0.799,0 -0.799,0 0,0 -25.905,0 -25.905,0 z"
         inkscape:connector-curvature="0"
         style="fill:#ffd441" />
      <path
         id="path1748"
         d="m 422.983,272.225 c 0,0 0,43.546 0,43.546 0,0 26.714,0 26.714,0 0,0 0,-9.447 0,-9.447 0,0 -14.984,0 -16.429,0 0,-1.212 0,-6.584 0,-7.795 1.445,0 16.429,0 16.429,0 0,0 0,-9.362 0,-9.362 0,0 -14.984,0 -16.429,0 0,-1.204 0,-6.381 0,-7.585 1.445,0 16.429,0 16.429,0 0,0 0,-9.357 0,-9.357 0,0 -0.792,0 -0.792,0 0,0 -25.922,0 -25.922,0 z"
         inkscape:connector-curvature="0"
         style="fill:#ffd441" />
      <path
         id="path1750"
         d="m 219.472,374.769 c 0,0 -9.539,0 -9.539,0 0,0 0,44.926 0,44.926 0,0 11.194,0 11.194,0 0,0 0,-44.926 0,-44.926 0,0 -1.655,0 -1.655,0 z"
         inkscape:connector-curvature="0"
         style="fill:#000000" />
      <path
         id="path1752"
         d="m 274.504,374.769 c 0,0 -9.539,0 -9.539,0 0,0 0,16.396 0,23.465 -4.185,-6.422 -15.279,-23.465 -15.279,-23.465 0,0 -10.117,0 -10.117,0 0,0 0,44.926 0,44.926 0,0 11.196,0 11.196,0 0,0 0,-16.324 0,-23.384 4.175,6.414 15.225,23.384 15.225,23.384 0,0 10.17,0 10.17,0 0,0 0,-44.926 0,-44.926 0,0 -1.656,0 -1.656,0 z"
         inkscape:connector-curvature="0"
         style="fill:#000000" />
      <path
         id="path1754"
         d="m 317.65,374.769 c 0,0 -22.334,0 -22.334,0 0,0 0,44.926 0,44.926 0,0 11.195,0 11.195,0 0,0 0,-13.723 0,-16.469 2.508,0 12.795,0 12.795,0 0,0 0,-11.001 0,-11.001 0,0 -10.287,0 -12.795,0 0,-1.439 0,-5.018 0,-6.455 2.508,0 12.795,0 12.795,0 0,0 0,-11.001 0,-11.001 0,0 -1.656,0 -1.656,0 z"
         inkscape:connector-curvature="0"
         style="fill:#000000" />
      <path
         id="path1756"
         d="m 345.413,376.885 c -3.611,2.092 -6.483,4.968 -8.538,8.538 -2.064,3.57 -3.11,7.536 -3.11,11.794 0,6.347 2.241,11.914 6.656,16.533 4.438,4.629 10.077,6.979 16.756,6.979 6.393,0 11.906,-2.286 16.382,-6.801 4.475,-4.499 6.748,-10.073 6.748,-16.568 0,-6.549 -2.302,-12.179 -6.834,-16.743 -4.538,-4.564 -10.04,-6.883 -16.352,-6.883 -4.156,0 -8.098,1.058 -11.708,3.151 z"
         inkscape:connector-curvature="0"
         style="fill:#000000" />
      <path
         id="path1758"
         d="m 349.367,406.957 c -2.925,-2.375 -4.342,-5.525 -4.342,-9.637 0,-3.722 1.131,-6.687 3.461,-9.062 2.318,-2.366 5.105,-3.523 8.522,-3.523 3.372,0 6.159,1.18 8.517,3.619 2.371,2.44 3.522,5.357 3.522,8.902 0,3.57 -1.143,6.478 -3.494,8.893 -2.334,2.408 -5.084,3.58 -8.404,3.58 -2.953,0 -5.497,-0.907 -7.782,-2.772 z"
         inkscape:connector-curvature="0"
         style="fill:#ffd441" />
      <path
         id="path1760"
         d="m 399.548,374.769 c 0,0 -1.656,0 -1.656,0 0,0 0,44.926 0,44.926 0,0 11.2,0 11.2,0 0,0 0,-8.999 0,-14.16 2.641,4.944 7.56,14.16 7.56,14.16 0,0 12.319,0 12.319,0 0,0 -9.387,-17.568 -10.534,-19.717 2.028,-1.009 4.015,-2.043 5.169,-3.659 1.519,-2.124 2.286,-4.75 2.286,-7.819 0,-2.899 -0.686,-5.469 -2.035,-7.633 -1.366,-2.188 -3.199,-3.781 -5.461,-4.741 -2.18,-0.913 -5.605,-1.357 -10.459,-1.357 0,0 -8.389,0 -8.389,0 z"
         inkscape:connector-curvature="0"
         style="fill:#000000" />
      <path
         id="path1762"
         d="m 484.236,374.769 c 0,0 -8.877,0 -8.877,0 0,0 -6.317,18.861 -8.53,25.46 -2.197,-6.599 -8.481,-25.46 -8.481,-25.46 0,0 -10.186,0 -10.186,0 0,0 -7.827,44.926 -7.827,44.926 0,0 11.034,0 11.034,0 0,0 2.407,-13.845 3.692,-21.195 2.416,7.254 7.059,21.195 7.059,21.195 0,0 9.369,0 9.369,0 0,0 4.654,-13.885 7.093,-21.155 1.244,7.376 3.579,21.155 3.579,21.155 0,0 11.017,0 11.017,0 0,0 -7.543,-44.926 -7.543,-44.926 0,0 -1.399,0 -1.399,0 z"
         inkscape:connector-curvature="0"
         style="fill:#000000" />
      <path
         id="path1764"
         d="m 533.113,374.769 c 0,0 -24.338,0 -24.338,0 0,0 0,44.926 0,44.926 0,0 25.994,0 25.994,0 0,0 0,-11.065 0,-11.065 0,0 -12.189,0 -14.797,0 0,-1.964 0,-4.29 0,-6.252 2.608,0 14.797,0 14.797,0 0,0 0,-11.002 0,-11.002 0,0 -12.189,0 -14.797,0 0,-1.438 0,-4.169 0,-5.606 2.608,0 14.797,0 14.797,0 0,0 0,-11.001 0,-11.001 0,0 -1.656,0 -1.656,0 z"
         inkscape:connector-curvature="0"
         style="fill:#000000" />
      <path
         id="path1766"
         d="m 407.436,392.709 c 0,0 2.479,0 2.479,0 2.521,0 4.258,-0.332 5.202,-1.002 0.953,-0.662 1.429,-1.769 1.429,-3.311 0,-0.914 -0.24,-1.706 -0.709,-2.384 -0.47,-0.679 -1.099,-1.163 -1.892,-1.454 -0.792,-0.298 -2.236,-0.444 -4.344,-0.444 0,0 -2.165,0 -2.165,0 0,0 0,8.595 0,8.595 z"
         inkscape:connector-curvature="0"
         style="fill:#ffd441" />
      <path
         id="path1768"
         d="m 553.396,374.754 c 0,0 -1.669,0 -1.669,0 0,0 0,44.956 0,44.956 0,0 11.184,0 11.184,0 5.6,0 9.477,-0.357 11.852,-1.092 2.411,-0.752 4.676,-2.116 6.734,-4.056 2.052,-1.947 3.67,-4.402 4.809,-7.3 1.137,-2.861 1.715,-6.041 1.715,-9.448 0,-4.771 -1.031,-9.025 -3.064,-12.643 -2.07,-3.665 -4.749,-6.349 -7.962,-7.982 -3.195,-1.637 -7.849,-2.435 -14.221,-2.435 0,0 -9.378,0 -9.378,0 z"
         inkscape:connector-curvature="0"
         style="fill:#000000" />
      <path
         id="path1770"
         d="m 561.272,384.114 c 0,0 0,26.236 0,26.236 0,0 3.684,0 3.684,0 3.618,0 6.243,-0.412 7.875,-1.245 1.632,-0.831 2.973,-2.229 4.007,-4.191 1.043,-1.964 1.559,-4.378 1.559,-7.245 0,-4.412 -1.236,-7.836 -3.708,-10.268 -2.23,-2.197 -5.798,-3.287 -10.726,-3.287 0,0 -2.691,0 -2.691,0 z"
         inkscape:connector-curvature="0"
         style="fill:#ffd441" />
      <g
         id="g1774"
         clip-path="url(#Clip_2)" />
    </g>
  </g>
</svg>
