<svg xmlns="http://www.w3.org/2000/svg" width="500" height="500"><path d="M77.16 87.818c-25.705 0-26.418 50.33 0 50.33h22.654c.078.017 17.99 3.982 17.99 22.943 0 12.497-16.194 17.394-22.937 18.904H23.945c-25.705 0-26.418 50.33 0 50.33H41.6c1.289.31 17.765 4.615 17.765 22.882 0 12.057-15.15 17.065-22.279 18.76H23.945c-25.705 0-26.418 50.33 0 50.33h117.648c25.035 0 25.244-50.33 0-50.33h-20.62c-4.685-1.41-18.604-6.662-18.501-19.575.14-17.681 21.263-21.426 26.276-22.067h162.987c25.035 0 25.244-50.33 0-50.33h-9.518c-4.232-1.218-19.062-6.423-18.956-19.72.15-18.835 23.893-21.828 26.816-22.127h40.337c25.035 0 25.244-50.33 0-50.33zm113.958 184.15c-25.705 0-26.418 50.33 0 50.33h66.149c5.225 2.908 11.917 8.876 11.917 20.466 0 13.06-17.694 17.826-23.78 19.088H33.576c-38.43 0-39.495 50.33 0 50.33h427.093c37.427 0 37.74-50.33 0-50.33h-50.357c-2.67-.685-19.71-5.608-19.596-19.903.09-11.292 8.758-16.904 16.318-19.652h18c25.035 0 25.244-50.33 0-50.33z" fill="#f8f8f8"/></svg>