<svg xmlns="http://www.w3.org/2000/svg" width="500" height="500"><path d="M85.896 146.877c-22.653 0-23.28 44.353 0 44.353h20.063c3.546 1.127 14.717 5.769 14.717 19.88 0 10.69-13.494 15.086-19.726 16.554H23.184c-29.65 0-30.472 44.353 0 44.353H139.82c3.39 1.05 14.874 5.642 14.874 19.931 0 11.51-15.594 15.709-20.956 16.822H98.142c-33.867 0-34.805 44.353 0 44.353h376.38c32.983 0 33.259-44.353 0-44.353H300.148c-2.353-.604-17.37-4.943-17.27-17.54.115-14.355 15.786-18.24 21.735-19.213h48.1c28.878 0 29.119-44.353 0-44.353h-87.48c-4.068-1.216-16.462-5.837-16.371-17.273.112-14.105 15.252-18.101 21.428-19.16h67.36c22.062 0 22.246-44.354 0-44.354zm331.485 80.787c-29.65 0-30.472 44.353 0 44.353h46.91c28.877 0 29.118-44.353 0-44.353z" fill="#fff"/></svg>