<svg xmlns="http://www.w3.org/2000/svg" width="500" height="500"><path d="M408.775 131.613c-32.402 0-33.3 48.47 0 48.47h51.262c31.558 0 31.822-48.47 0-48.47zm-361.227-.87c-24.754 0-25.44 48.469 0 48.469h36.78c24.11 0 24.31-48.47 0-48.47zm101.164 0c-24.755 0-25.44 48.469 0 48.469h15.107c1.301.314 17.095 4.481 17.095 22.036 0 12.679-17.325 17.242-23.048 18.413H76.664c-24.755 0-25.44 48.469 0 48.469h62.03c3.876 1.231 16.083 6.304 16.083 21.724 0 11.682-14.745 16.487-21.556 18.091-46.097 0-53.711-.446-96-.446-37.008 0-38.034 48.469 0 48.469h426.992c36.044 0 36.345-48.47 0-48.47-90.547-1.02-104.593.447-151.464.447-4.445-1.329-17.99-6.379-17.89-18.876.123-15.414 16.668-19.781 23.417-20.939h115.043c24.11 0 24.31-48.47 0-48.47h-159.54c-2.033-.504-19.106-5.155-18.994-19.2.135-16.964 20.347-20.61 25.273-21.248h64.782c24.11 0 24.311-48.47 0-48.47z" fill="#fff"/></svg>