<?xml version="1.0" encoding="UTF-8" standalone="no"?>
<!-- Created with Inkscape (http://www.inkscape.org/) -->

<svg
   xmlns:dc="http://purl.org/dc/elements/1.1/"
   xmlns:cc="http://creativecommons.org/ns#"
   xmlns:rdf="http://www.w3.org/1999/02/22-rdf-syntax-ns#"
   xmlns:svg="http://www.w3.org/2000/svg"
   xmlns="http://www.w3.org/2000/svg"
   xmlns:sodipodi="http://sodipodi.sourceforge.net/DTD/sodipodi-0.dtd"
   xmlns:inkscape="http://www.inkscape.org/namespaces/inkscape"
   width="500px"
   height="500px"
   viewBox="0 0 500 500"
   version="1.1"
   id="SVGRoot"
   inkscape:version="0.92.3 (2405546, 2018-03-11)"
   sodipodi:docname="cloud3.svg">
  <sodipodi:namedview
     id="base"
     pagecolor="#ffffff"
     bordercolor="#666666"
     borderopacity="1.0"
     inkscape:pageopacity="0.0"
     inkscape:pageshadow="2"
     inkscape:zoom="1.024"
     inkscape:cx="116.21094"
     inkscape:cy="257.8125"
     inkscape:document-units="px"
     inkscape:current-layer="layer1"
     showgrid="false"
     inkscape:window-width="1853"
     inkscape:window-height="1025"
     inkscape:window-x="67"
     inkscape:window-y="27"
     inkscape:window-maximized="1" />
  <defs
     id="defs2203" />
  <metadata
     id="metadata2206">
    <rdf:RDF>
      <cc:Work
         rdf:about="">
        <dc:format>image/svg+xml</dc:format>
        <dc:type
           rdf:resource="http://purl.org/dc/dcmitype/StillImage" />
        <dc:title />
      </cc:Work>
    </rdf:RDF>
  </metadata>
  <g
     id="layer1"
     inkscape:groupmode="layer"
     inkscape:label="Layer 1">
    <g
       transform="matrix(1.787195,0,0,1.787195,-120.3085,198.12248)"
       id="g1616"
       style="fill:#ffffff;fill-opacity:1">
      <path
         inkscape:connector-curvature="0"
         style="opacity:1;fill:#ffffff;fill-opacity:1;stroke:none;stroke-width:13.89759064;stroke-linecap:round;stroke-miterlimit:4;stroke-dasharray:none;stroke-opacity:1"
         d="m 148.58008,-37.962891 c -14.71543,0 -15.12332,28.8125004 0,28.8125004 h 8.15039 c 2.30376,0.731915 9.56055,3.7475338 9.56055,12.9140625 0,6.9439251 -8.76562,9.8001151 -12.81446,10.7539061 H 84.863281 c -19.261396,0 -19.795306,28.8125 0,28.8125 h 81.167969 c 2.20237,0.68246 9.66211,3.664705 9.66211,12.947266 0,7.477072 -10.12956,10.204801 -13.61328,10.927734 H 85.246094 c -21.99994,0 -22.60975,28.8125 0,28.8125 H 329.74805 c 21.42668,0 21.60558,-28.8125 0,-28.8125 h -59.56446 c -1.52877,-0.392335 -11.284,-3.210803 -11.21875,-11.394531 0.0743,-9.324891 10.25434,-11.848318 14.11914,-12.480469 h 25.84571 c 18.75951,0 18.91614,-28.8125 0,-28.8125 h -38.73242 c -2.64287,-0.789894 -10.694,-3.791972 -10.63477,-11.220703 0.073,-9.1631413 9.9079,-11.7589793 13.91992,-12.4472656 h 48.64063 c 14.33199,0 14.45165,-28.8125004 0,-28.8125004 z"
         id="path1541" />
    </g>
  </g>
</svg>
