<svg xmlns="http://www.w3.org/2000/svg" width="500" height="500"><path d="M145.233 130.275c-26.3 0-27.028 51.494 0 51.494H159.8c4.118 1.308 17.087 6.698 17.087 23.08 0 12.41-15.666 17.515-22.902 19.22H31.359c-34.424 0-35.378 51.493 0 51.493h145.063c3.936 1.22 17.268 6.55 17.268 23.14 0 13.362-18.104 18.237-24.33 19.53H32.043c-39.318 0-40.408 51.493 0 51.493h436.973c38.293 0 38.613-51.494 0-51.494H362.562c-2.732-.701-20.166-5.738-20.05-20.364.133-16.666 18.327-21.175 25.234-22.305h46.191c33.527 0 33.807-51.494 0-51.494h-69.222c-4.724-1.411-19.113-6.777-19.007-20.053.13-16.377 17.708-21.016 24.878-22.246h86.93c25.614 0 25.828-51.494 0-51.494z" fill="#fff"/></svg>