<?xml version="1.0" encoding="UTF-8" standalone="no"?>
<!-- Created with Inkscape (http://www.inkscape.org/) -->

<svg
   xmlns:dc="http://purl.org/dc/elements/1.1/"
   xmlns:cc="http://creativecommons.org/ns#"
   xmlns:rdf="http://www.w3.org/1999/02/22-rdf-syntax-ns#"
   xmlns:svg="http://www.w3.org/2000/svg"
   xmlns="http://www.w3.org/2000/svg"
   xmlns:sodipodi="http://sodipodi.sourceforge.net/DTD/sodipodi-0.dtd"
   xmlns:inkscape="http://www.inkscape.org/namespaces/inkscape"
   width="500px"
   height="500px"
   viewBox="0 0 500 500"
   version="1.1"
   id="SVGRoot"
   inkscape:version="0.92.3 (2405546, 2018-03-11)"
   sodipodi:docname="cloud5.svg">
  <sodipodi:namedview
     id="base"
     pagecolor="#ffffff"
     bordercolor="#666666"
     borderopacity="1.0"
     inkscape:pageopacity="0.0"
     inkscape:pageshadow="2"
     inkscape:zoom="1.024"
     inkscape:cx="14.495998"
     inkscape:cy="205.17146"
     inkscape:document-units="px"
     inkscape:current-layer="layer1"
     showgrid="false"
     inkscape:window-width="1853"
     inkscape:window-height="1025"
     inkscape:window-x="67"
     inkscape:window-y="27"
     inkscape:window-maximized="1" />
  <defs
     id="defs2203" />
  <metadata
     id="metadata2206">
    <rdf:RDF>
      <cc:Work
         rdf:about="">
        <dc:format>image/svg+xml</dc:format>
        <dc:type
           rdf:resource="http://purl.org/dc/dcmitype/StillImage" />
        <dc:title />
      </cc:Work>
    </rdf:RDF>
  </metadata>
  <g
     id="layer1"
     inkscape:groupmode="layer"
     inkscape:label="Layer 1">
    <path
       inkscape:connector-curvature="0"
       style="opacity:1;fill:#ffffff;fill-opacity:1;stroke:none;stroke-width:23.37896729;stroke-linecap:round;stroke-miterlimit:4;stroke-dasharray:none;stroke-opacity:1"
       d="m 408.77537,131.61328 c -32.40215,0 -33.3003,48.46931 0,48.46931 h 51.26207 c 31.55784,0 31.82133,-48.46931 0,-48.46931 z M 47.548263,130.74227 c -24.754763,0 -25.440928,48.4693 0,48.4693 h 36.779102 c 24.109725,0 24.311025,-48.4693 0,-48.4693 z m 101.163897,0 c -24.75476,0 -25.44093,48.4693 0,48.4693 h 15.10723 c 1.30077,0.31421 17.09502,4.48174 17.09502,22.03658 0,12.67863 -17.32591,17.24158 -23.04854,18.41255 H 76.664112 c -24.754764,0 -25.440947,48.46928 0,48.46928 h 62.030218 c 3.87548,1.23126 16.08306,6.30423 16.08306,21.72446 0,11.68128 -14.74578,16.48606 -21.55687,18.09055 -46.096273,0 -53.710917,-0.4463 -95.998922,-0.4463 -37.00899604,0 -38.03483774,48.4693 0,48.4693 H 464.21274 c 36.04466,0 36.34561,-48.4693 0,-48.4693 -90.54668,-1.02099 -104.5929,0.4463 -151.46328,0.4463 -4.44592,-1.32878 -17.98978,-6.37897 -17.89013,-18.87582 0.1228,-15.41452 16.66738,-19.78132 23.41653,-20.93919 h 115.04282 c 24.10972,0 24.31102,-48.46928 0,-48.46928 H 273.77885 c -2.03254,-0.50489 -19.10608,-5.15589 -18.9941,-19.20109 0.13526,-16.96385 20.34747,-20.6103 25.27291,-21.24804 H 344.84 c 24.10973,0 24.31102,-48.4693 0,-48.4693 z"
       id="path1511"
       sodipodi:nodetypes="sssssssssssscscsscsccssccccsscscsss" />
  </g>
</svg>
