<svg xmlns="http://www.w3.org/2000/svg" width="500" height="500"><path d="M99.677 147.728c-34.453 0-33.524 43.904 0 43.904h35.244c5.316 1.105 20.735 5.262 20.735 16.65 0 12.841-9.356 17.762-13.604 19.344H87.555c-23.045 0-22.424 43.905 0 43.905h13.14c12.215.325 22.265 2.692 22.265 17.381 0 16.578-10.456 18.434-16.682 19.411-17.908 0-27.307.045-80.8.045-30.165 0-29.351 43.904 0 43.904h326.196c28.825 0 28.586-43.904 0-43.904H272.71c-.308-.025-23.698-1.973-23.836-19.355-.108-13.517 17.565-17.482 17.565-17.482h70.325c22.021 0 21.839-43.905 0-43.905H301.99c-6.877-1.5-19.343-5.957-19.444-18.634-.1-12.47 14.766-16.762 17.095-17.36h172.61c32.924 0 32.651-43.904 0-43.904zm-77.363 79.898c-23.045 0-22.424 43.905 0 43.905H37.4c22.022 0 21.84-43.905 0-43.905zm376.703 0c-23.046 0-22.424 43.905 0 43.905h69.803c22.022 0 21.84-43.905 0-43.905z" fill="#fff" fill-opacity=".967"/></svg>