<svg xmlns="http://www.w3.org/2000/svg" xmlns:xlink="http://www.w3.org/1999/xlink" width="100" height="100"><defs><linearGradient id="a"><stop offset="0" stop-color="#5b54a4"/><stop offset="1" stop-color="#f80000"/></linearGradient><linearGradient xlink:href="#a" id="b" x1="-36.328" y1="-17.773" x2="191.016" y2="174.414" gradientUnits="userSpaceOnUse"/></defs><path d="M50 2.72C23.888 2.72 2.72 23.888 2.72 50c0 26.112 21.168 47.28 47.28 47.28 26.112 0 47.28-21.168 47.28-47.28C97.28 23.888 76.112 2.72 50 2.72z" fill="none" stroke="#fff" stroke-width="3.525"/><path d="M35.907 32.346H60.02l15.593 34.762h-3.897l-3.824-8.541h-14.3l1.043-3.5h11.197l-8.32-19.121h-5.665v18.052c0 8.541-5.86 13.656-13.756 13.656s-13.706-5.561-13.706-13.656h3.5c0 6.605 3.8 10.156 10.206 10.156s10.106-2.955 10.106-10.156v-18.3H35.907z" fill="#fff"/></svg>