<svg xmlns="http://www.w3.org/2000/svg" width="200" height="200"><defs><filter id="a" x="-.106" width="1.211" y="-.106" height="1.211" color-interpolation-filters="sRGB"><feGaussianBlur stdDeviation="8.188"/></filter></defs><circle cx="100" cy="100" r="93.043" transform="matrix(.88464 0 0 .88464 11.536 11.536)" opacity=".451" fill="#fbfbfb" fill-opacity=".971" filter="url(#a)"/><circle r="82.418" cy="100" cx="100" fill="#eee"/><path d="M98.468 93.273l17.96-10.803 9.859 2.025 7.562 4.862 8.643 5.266-1.621 4.322-8.643-3.512-9.452-2.43-9.588.135-12.02 2.43h-2.43z" fill="none"/><path d="M89.409 151.687l.272-.553.468-.347.127.83-.256.234-.182-.2z" fill="#8d6a48" fill-rule="evenodd"/><path d="M92.935 153.872l.729 2.466-1.632-.079-.37-1.016zM90.641 145.742l-2.222 1.295-.311-1.604.898-.602z" fill="#795b3e"/><g transform="matrix(.88464 0 0 .88464 11.536 11.536)" fill="#b3b3b3"><circle cx="40.872" cy="123.078" r="10.991"/><path d="M84.468 56.97l-.251 2.492-.72 2.321-1.14 2.1-5.44 4.48H67.29l-2.1-1.14-4.48-5.44-.72-2.32-.251-2.493.971-4.813 2.65-3.93 1.83-1.51 4.421-1.86 2.492-.251 2.492.25 2.321.721 3.93 2.65 1.51 1.83 1.14 2.1.72 2.321z"/><circle cx="83.49" cy="158.703" r="13.385"/><circle r="13.385" cy="140.862" cx="58.661" transform="rotate(-39.92)"/><circle cx="71.847" cy="65.293" r="12.114" transform="rotate(22.82)"/><circle r="10.991" cy="116.043" cx="40.998" transform="rotate(-54.542)"/><circle cx="90.224" cy="98.826" r="10.389"/><circle transform="rotate(-36.81)" cx="19.644" cy="205.994" r="10.991"/><circle transform="rotate(-67.55)" cx="-119.811" cy="103.655" r="6.936"/><path d="M137.852 126.325c-7.48 4.75-10.362 3.589-18.151.717-4.75-7.48-1.552-16.434-1.552-16.434l6.225-4.571 13.74 3.702 3.139 7.362zM178.922 102.615c-8.02 3.768-10.732 2.25-18.096-1.582-3.767-8.02.537-16.499.537-16.499l5.874-2.478 7.46-.91s4.755 3.878 6.386 6.417c1.219 1.897 2.379 6.332 2.379 6.332z"/></g><g transform="matrix(.88464 0 0 .88464 11.536 11.536)" fill="#dcdcdc"><circle r="10.389" cy="124.071" cx="39.489"/><path d="M82.636 58.127l-.24 2.372-.685 2.21-1.086 2-5.179 4.264h-9.163l-2-1.085-4.264-5.18-.686-2.209-.24-2.372.926-4.582 2.522-3.741 1.742-1.438 4.21-1.77 2.372-.24 2.372.24 2.21.685 3.741 2.523 1.437 1.742 1.086 2 .686 2.209z"/><circle cy="159.891" cx="82.303" r="12.197"/><circle r="12.197" cx="57.049" cy="141.239" transform="rotate(-39.92)"/><ellipse cy="66.333" cx="71.018" transform="matrix(.91898 .39431 -.38146 .92438 0 0)" rx="11.541" ry="11.699"/><circle cx="38.695" cy="115.369" transform="rotate(-54.542)" r="10.389"/><ellipse cy="100.424" cx="88.631" rx="10.096" ry="9.608"/><circle r="10.389" transform="rotate(-36.81)" cy="207.114" cx="17.935"/><circle r="6.556" transform="rotate(-67.55)" cy="104.361" cx="-120.889"/><path d="M135.839 127.705c-6.881 4.37-9.533 3.301-16.699.66-4.37-6.882-1.427-15.12-1.427-15.12l6.815-4.335 11.552 3.536 2.887 6.773zM177.665 103.02c-7.322 3.583-9.839 2.227-16.669-1.19-3.583-7.323.252-15.184.252-15.184l6.394-2.272 6.367-1.233s3.977 3.798 5.41 6.11c1.074 1.737 2.294 5.68 2.294 5.68z"/></g><path d="M182.417 100c0 22.759-9.224 43.363-24.14 58.278-14.914 14.915-35.518 24.14-58.277 24.14 79.472-23.85 86.875-93.824 58.278-140.696 14.915 14.915 24.14 35.519 24.14 58.278z" opacity=".084"/></svg>