<svg xmlns="http://www.w3.org/2000/svg" fill="#7c7c7c" height="631" stroke="#fff" stroke-linecap="round" stroke-linejoin="round" stroke-width="2" version="1.2" width="1000"><path d="M901.9 362.5v.2l-.2-.1-.3.1.3-.2h.2zm2.8.4l1.1.9 1 1.5.5 1.2-.4 1.8-.4 1-.5.4-.4-.1-.6-.3-.3-.3.1-.4-.3-.6.2-.2.5-.2.6-.6.1-.8-.6-.7-.4-.5-.1-.8-.8-.4-.7-.3-.6.2-.2.5-.3-.1.2-.5.3-.5.3-.5.5-.2 1.2.5z"/><path d="M115.9 1l-1.3.1-2.3.2-2.3.2-7 .7-2.3.2-2.3.2-2.4.2-2.3.2-4.6.4-2.3.2-11.6 1.1-2.3.2-2.3.2-2.4.2-2.3.2-6.9.6-2.4.2-6.9.6-7 .7-2.5.2v1.5l.1.7.1.7.4.6.5 1.2.5 1.3 1.5 3.5.5.4 1.4.4.6.3.4.5.4.5.5 1.6.6 1.7.3 2.3.1 1.3.3.8.7 1 1.2.3h1.1l.4.5V30l.1 1 .6.2.5.1.8.4.5.8.6.2 1.2.2.3.6v.7l-.1.8-.2 1.1-.3.7-.4.7-.6.4-.5-.1-1-.7-1.3-.3.3.5.8 1 .8.1.5.3.2.2.4.7.2.7-.2 1-.2.5-.1.6.6.8h-.7l-.3.1-.1.4.2.5.7.6.2.3 1.2 1 .2.4.1.3.1.2.3.2.4.2.6.5.5.2.2.3.5.6.2.1.4.5 1.3 2.5 3.6 4.4 1 2.6-.3 2.2-.2 2.3-.5 1.4.2 1.2.9.1 1.2-.4.6.3.7 1.1.3.5.5.8.8 1.1.8.1 1.4 1.5 1.2.2.3.4.1.7.6 1.9.2 3.8-.6 5.4.6 1.4.6 1.8.2 1.2h.8l-.4-1.1-.1-.8-.3-.4-.3-.1v-.4l.1-.3.3-.2.4.3.2.3h.3l.4-.3-.1-.6-.2-.5-.3-.4-.3-.6.5.2.6.5.4.6.2.5-.1.5-.3.5-.9.8h1.4l1.1.5 1 .7.9.8.3 1 .6 1.2.3 1.6v1.7l-.1 1.2-.1.4.1.3.3.5.1.2.2 1.1-.2 2-.7 2.6.1.4 1.4.1.6.2.5.5.2.5.7.8.2 1.1.3 1.4-.1 1-.2.9-.1.8 2.4 2.2.9.1.6.8.8.6.4.7.5.3.7.5.6-.5.8.2.9.9 1.7 1.4 2.7 1 1.6 1.4 1.5 2.3 2.6.3 4.1 1.5 1.5 1.7 1.5 1.6.8 1 .7 1 1.4 1.3 1.1.1.2.2.2.4.1.9.2.3.2.9.6.8.5-.6.9.3.9.3.2.5.2.7.3.6.2.5v1.2l.3 1.2.6-.5.4-.1.1.4.3.7.2.6.4.3h.2l.2-.1.5-.1.8.1.5.7.6.5.1.7.6-.1.5.7-.2.7.5 1.2.7-.2.3.6v.6l.4.5v1.2l1.1.2.5.8.7.3.2.7-.1.1v.5l.8.2.4-.2.8-.1h.8l.3.2.3.3.2.8.1.9-.1.7-.1.5.4.2h1.2l.4.4.4.3.1.4.1.3.3.2v.5l-.1.6.3.3.4.1.2.6-.2.9-.3 1-.7 2.3-.5 1.2-.4.8-.5 1.1.3.2.2.3.4.1.3-.3h.3l.3.3.1.5.1.4.2.2-.4.5-.3.6-.4.7-.5.8-.2.5.2.3.2.5v1.6l.5-.1.5.1.4.4.3.2h.3l-.1.3-.5.8-.2.2-.2.2-.1-.2-.2-.3-.5-.5-.4-.3-.4.3-.1.2.2.2.3-.1.3.5.1.2.1.7-.1.6-.4 1.1-.7-1.2v-.4l-.3-.6-.3-.4-.1-.1.1-.4.1-.3.3-.3.6-.4.1-.6-.2-.9h-.5l-.6.8-1 1.4-.6.8-.2.2-.5.5-.2.5-.6.5-.3.3-.2.5-.1.5-.1.6.2.5.4-.2.3-.3.2-.4.6-.3.4.1.3-.2.3-.2.2-.1.2-.3v-.2l.3-.2h.2l.2.2v.3l-.1.2.1.3.2.1.3.1.1.2v.2l-.5.2.1.2h.4l.1.2-.1.4-.3.5-.5.7-.2.3-.2.3v1.4l.4.5.2.3.3.3.1.5v.4l.3.3.2.3.3.2h.4l.4-.1.4-.3.2-.2h.3l.2.2h.1l.1-.2v-.2h.3l.1-.3-.2-.4-.2-.3-.2-.2v-.4l-.3-.5-.1-.3.1-.2.2.1.3.3.2.3.2.6.4.6.1.1.6-.1h.3l.2-.2h.1l.2.2.1.2.2.1.3.1.4.2.2.2.3.1.3.2.2.4-.1.4-.4.4-.2.3-.2.3-.3.5h-.5l-.9-.1-.5-.2-.3-.3v-.3l-.3-.1-.4.1-.1-.1v-.3l-.3-.1-.6.2-.1.1v.2h.2l.2-.1.1.1.1.2.1.2.2-.1.2.2-.1.5-.3.4-.6.4v.3l-.2.3-.4.2-.3.2v-.7h-.3l-.2-.1v-.4l-.2-.3-.3-.5-.5-.4-.8-.4-.6-.4-.9-.2-.5-.3-.7-.7-.6-.4-.7-1-.3-.5.2-.4.2-.4.2-.6.1-.5-.1-.7-.1-.3v-.3l-.2-.1-.4-.1h-.3l-.3.2-.9.6-.5.6-.4.2-.4.4-.9.6-.9.5-1.1.5-1-.5-1.3.2-1.1.3-1-.2-1-.3h-.7l-.6-.1-.3-.2-.1-.4h-.5l-.8-.1-.7-.2-1 .2-.7-.1-.2-.4-.7-.2h-.5l-1.2-.2-1.4.3-1.5-.1-.3-.5-.5-.5-.5-.1-.9.3.9 1 .1.1.2.9.4.6v.7l.4.7.3.4.3.5.4-.4.5.1.7.2.4.6.2.9.6.2.4.2.1-.5.2-.3.1-.3h.5l.3.2.3.3.2.3.1.5-.2.6-.3.1-.4-.4-.1.2.4.5.2.3.4.2.1-.4.3-.1.8.3.7.7.4 1 .1.2.5.6.5 1.1h.6l1.1.5 1.6.6 1.1.5.5.9.5.1.8.5.3.2.7.8.5 1.5.2 1.4-.1 1.5v1.5l.4.8.4-.2.6.3.4.2v.4l.1.3-.2.4.4.4.8-.6 1.4.6 1 .7.8.7.1-.7.5-.1 1.2-.2.9.4.8.1 1.1.6 1.1.6.9 1.1.7.9.4 1.1 1.4 1.5.4.2.3-.2.3-.1v-.5l.4-.2 1.6.2 1 .4.9.5 1.1.7.8 1 1.1 2.1.6 1.1.1.6.2.5 1.9 1 .9 1.6 1.3.5.7.2.6-.5h.4v-.8l.5-.4.3-.6.4-.8 1.1-.4h.7l.9-.1.6.2 1.1.2 1.2.7 1.3.9.5-.1.1-.2.1-.5v-1.4l.2-.4.4-.5.4.3.9-.8.2-1.1.1-2.2.4-.8.5-.2.6.1.5.6.1.6.1 1.8-.2.4-.2.6-.3.4-.5.3-.2.4-.4.4-.3.2-.4.4-.3.2h-.6l-.2.2.2.2.1.5.1.4.3.4.3.2.4-.2v-.2l-.1-.3.4-.1.4-.1.2-.9.5-.2.4-.1h.3l.2.2-.2.1-.4.3-.1.4v.4l.2.4.3.6.3.5.4.3.5.6.8 1.2.2.2v.4l-.1.4v1l1.3 1.3.5.5.5.2h.8l.1.1.2.8 1.5.9 1.3 1 1 1 .8.6.6.5 1 .6.9.6 1.2 1.7.4.1 1.3-.1.6.1.1.1.2.6.5.4.5-.2.5-.3.1.4v.6l1.8 1.4.5-.1.3-.4.2-.4.4-.1.4.1 1.2.7.8.7 1.1 1.5.7 1.6.2 1 .2 1.2.5.7.9-.2.8.5.6.9.7.7.6 1.4.6 2.3.6 1.1.3 1.5.7 1.1.2 1.9.1 4.7-.2 2V261.5l.3-.3.1-1.3.2-1.5-.1-3.7v-.6l.2-.2.2.3.2 1 .2 2v1.2l-.3.7.2.8.1 1.3v.6l-.4.3-.3.2.2.3.4-.1.8-.1.3.1-.5.3-.8.3-.3.5.4.1v.2l-.1.6-.2.3-.2.6v.5l.4.2v1l-.1 2.9-.2.6-.5.7-.6.8-.4 1-.3.9v.7l.1.5v.4l-.2.5.3.2v.2h.4v.4l-.2.5.1.3-.2 1-.6 1.1.2.3-.1.3-.4.1-.2.2.1.5.3.2-.2.9-.1.5.2.6h.3l.4-.5.3-.7-.2-.6-.2-.7.2-.4.3-.4v-.6l.3-.5.2-.2.3.3v.3l.1.3.3.5v.2l-.1.3-.4.3-.2.1v.3l.1.2.2.1.2.8-.2.3-.6.5-.3.1.2.6.2.1.2.1.2.2.1.4-.1 1 .1.7.2.4.3.4.5.4.7-.1-.2-.4v-.7l-.2-1.1.1-.4.5-.4.2.4v.3l-.2.3-.2.2.5 1.8.4.5.6-.6.1.3.2.2.3.1.3-.2-.2-.1-.3-.4-.2-.2.5-.3.2-.1-.7-.7-.3-.8-.1-.9-.3-1 .4.3.4.7.2.7.1.6.2.5.5.7.6.6.7.5v.2l-.1.1-.7-.5-.2.1.4.5.8.6.6.8.6.8.6.5.4 1.1.6 1.8-.2 1.2.1.7.2.3.4-.2.3-.2.3.2.6-.1-.6-.4-.7-.7.5.2.7.1.5-.1.4-.2.3.3.9.1.4-.8-.3-.5v-.5h.5l.4.4.6.5.4.5h-.3l-.3-.2.2.4.6 1.1.3 1.3.8 1 .9.8.8.1.6.4 1.1 1.1.3.6.5.5.5.1 1 .5 1.2.6.5.6-2.5-1.3-.3-.1.1.2 5.2 2.8 1.7.9 1.6 1.3 1.1.6 1 .5.8.6 1.4.9.7.7.2.4.7.5 1.1 1 .7.5 1.1 1.3.4.4.1.4.3.1.6.4 1.1 1.1 2 2.4 3.3 3.6 2.2 1.8 1.7.8 3.8 1.7 1.6 1 1.5 1.3.9 1.8.3.4 1 1.8.2.6.4.5.2.5.8 1.3.2.4.4.3.2 1 .3 2.2 1.3 5.2.1 1 .2 1 .3.2.4 1.1.5 1 .6.6.5.6.8.7.7.5.4.1.4.2h.6l1.2-.1-.2-.2v-.3l.6-.3h.8l.2-.1.5-.3.4-.4.6-.5v-.7l1.4-1 .9-.1.6-.7-.2-.3.2-.5.6-.3.7-.5 1.4-.5.6-.4h1l.3-.5 1.1-.4.2-.5.3-.1.3-.7.4-.2.6-.9.4-.6.2-.2.1-.4.3-.6.2-.3v-.4l-.1-.7.1-.3.1-.2.2-.4v-.5l.1-.8-.1-.4v-.6l-.1-.3.4-.3.1-.3v-.5l-.4-.2v-.4l.1-.6-.1-.6-.5-.6-.8-1-.3-.7v-.5l.3-.3v-.3l-.3-.1-.7-.2-.5-.2-.1-.4-.2-.2-.5-.1-.8-.2-.3-.1-.3-.3-.7-.4-.4-.1-.5-.1-.2-.2-1.2-.6-.5-.6.1-.8-.4-1.2-.2-.8.1-.9.3-.8-.4-.4-.3-.6-.6-.6-1-1.2-.4-.1-.6-.6-.1-.1-.5-.3-.2-.3-.2-.6-.1-.5.2-.9v-.3l.1-.1h.2l.4-.4v-.3l.2-.2v-.2l-.2-.4-.3-.2-.2-.3-.1-.6-.2.1-.5.4-1.2.4-1.3.3-.7-.3h-.6l-.5-.3v-.7l-.2-1.5-.1-.2v-.4l-.1-.3-.2-.8-.3-.3-.9-.6-.4-.2-.1-.2-.4-.1-.1-.3-.2-.1-.1-.1-.4-.1-.6-.3-.2-.1-.3-.3-.4-.3-.8-.2-.1-.3-.3-.3v-.3l-.2-.4-.3-.2-.3-.2-.3-.3-.3-.1-.2-.3v-.4l.2-.1-.1-.2-.4-.3-.1.2-.9-.2-.6-.1-.2.3-.2.2-.5.1-.2.3.1.1.2.1-.1.2h-.5l.1.2v.3l.1.2-.1.3.1.2-.1.2v.7l.2-.1.1-.3h.2V305.1l-.1.1.2.2.3.1-.1.7h.4l-.2 1.4-.6.7-.6.5-.1.1v.2l-.1.7-.3.1-.3-.1-.7.2h-.8l-.2-.4.2-.3-.1-.3-.3-.3.1-.5-.2-.3v-.2l.9.2 1.1.6.5-.1.5-.2.3-.3.1-.3h-.2l-2.2.1-1.6-.3-1.1-.3-.8-.1-.9-.3-.7-.3-.1-.3-.3-.2-.2-.5-.5-.2-.4-.3-.1-.5-.5-.5-.4-.9.1-.2-.5-.3v-.2l-.9-1.1.2-.4-.2-.3.1-.3-.2-.2-.2-.4.1-.3-.1-.2v-.4l.3-.3-.1-.8-1.1-1.3-.2-.4v-.3l-.2-.7-.1-.4.1-.2-.2-.9.1-.5-.1-.7.2-.6.2-.8.1-.7.5-.5.5-.1.1-.4v-.3l.1-.4.2-.6.5-.6v-.3l.1-.5v-.4l.1-.2v-.1h-.1l-.1-.1v-.2l-.1-.2-.2-.2v-.5l-.2-.2-.1-.3v-.3l-.1-.3v-.2l.1-.1-.2-.1v-.2l-.5-.3v-.2l-.1-.1.1-.1h.2v-.1l-.2-.2h-.2l-.2-.1v-.2l-.3-.4-.2-.4-.4-.4-.1-.3v-.7l-.3-.1.1-.3-.1-.1.1-.2-.7-.5-.2-.2-.2-.1-.1.1v.1h-.2l-.4-.1-.3-.3-.1-.2.1-.4-.2-.2-.5-.1-.1-.2-.4-.2-.1-.5-.1-.2v-.2l-.2-.2V274.9l-.2-.2-.4-.2-.4-.4-.2-.6v-.6l.2-.2-.1-.1-.2-.2-.2-.7-.3-.1-.3-.7.1-.4-.3-.3v-.3l.1-.4h.2l.1-.1-.1-.2v-.2l.1-.1-.2-.1-.2-.1v-.3l.1-.1-.1-.2-.3-.3v-.2l-.5-.2-.2-.3-.1-.6-.5-.8-.1-.3-.1-.9-.3-.2-.2-.6-.2-.2v-.4l.2-.1v-.4l.2-.2v-.2l-.3-.5.3-.3-.2-.3-.4-.1-.1-.1h-.1l-.1.2h-.2l-.2-.2h-.1l-.2.2-.2-.1-.1-.1.2-.3-.1-.1-.2.3-.6-.1-.1-.1-.1.1h-.4l-.3-.1-.1-.4-.3-.1-.2-.5-.1-.3-.1-.1-.4-.1-.3-.8-.4-.3-.2-.4-.2-.5-.1-.3v-.6l-.2-.5-.2-.5-.1-.4.1-.2-.4-.8h-.2l-.1.1-.3-.1-.1-.3-.2-.3-.3-.2-.4-.1-.4-.5-.4-.3-.2-.2v-.4l-.1-.4-.1-.5v-.2l.3.1v.2l.1.2h.2l.1-.2-.2-.1v-.2l-.3-.4-.2-.1-.1.1h-.2l-.2-.2-.1-1-.2-.2.2-.4-.1-.6-.1-.3-.3-.6-.2-.6-.1-.7.4-.4.3-.5v-.8l-.2-.6.1-.3.4-.4.1-.4.2-.1v-.4l-.2-.4.1-.4-.6-.5-.3-.5-.3-.6v-.7l-.2-.5-.3-.2-.1-.6.1-.4-.4-.8v-.3l-.3-.3.1-.9h.4l-.1-.8-.1-.5-.2-.6-.4-.5-.5-.2-.3-.4v-.2l.3-.1v-.2l-.2-.2-.3-.1-.7-.5-.3-.7.1-.8v-.9l.4-.7v-.7l.2-.3.2-.1-.4-.2-.2-.2v-.3l-.4.1v.1l-.3.1-.6-.1-.7-.3-.8-.3-.5-.3-.1-.7.2-1.7-.1-.8v-.8l.2-.9-.3-.1-.1-.3-.4-.1-.8-.4.1-.2-.5-.2-.1-.2-.7-.3v-.2l-.3-.2-.2-.3-.1-.5-.4.1-1.3-1-.3-.5-.5-.8-.7-.7-.7-.4-.1-.3-.8-.5-.2.3-.3.2-.5.1v.2l.2.3v.3l.1.3.2.2-.1.3.2.2.3.3-.2.5.2.5v.5l.2.4v1l.1.3-.1.3.1.3.2-.1.4.9.9.5.3.6.4.2.9.9.7.9.4.3.1.4-1.2 1.1-.7.4-.8-.5-.7-.6-.4-1.4-.5-.6-.4-.4-.5-.2-.2-.3v-.3l-.2-.5-.3-.6-.7-.6-.4-.1-.2-.7.5-1 .4.2v-.4l.1-.3.4-.3v-.2l-.1-.5-.2-.8-1.3-1.1-.1-.7-.9-.3-.3-.2-.1-.7-.5-.6-.1-.3-.3-.1-.5-.4-.5-1v-.7l.1-.5.3-.8.5-.7.5-.4.4.1.5-.2-.1-.3-.2-.2.1-.3-.3-.1h-1.1l-.5-.8-1.4-.2-.3-.2-.1-.2-.7.1-.8-.4-.6-.6-.7-.1-.3-.1-.1-.3-.4-.4-.4-.5-.6-.4v-.3l.2-.2.1-.2.2-.7-.3-.4-.4-.8-.3-.2-.2-.9-.2-.4-.5-.1-.3-.4-.1-.6-.5-.3-.4-.5-.1-.5.1-.4-.3-.6-.4-.8.1-.5-.2-1.3-.3-.7-.6-.7-.1-.4-.6-.6-.9-.6-.5-.4-1.2-.2-.3-.3-.4-.3-.2-.2-.4-.2-.5-.1-.4-.3-.5-.2h-.8l-.9-.4-.1-.5-.7-.4v-.3l-.3-.3-.2-.3-.2-.2-.1-.1-.3.1-.2-.2-.2-.1-.3-.4-.4-.5-.4-.4-.1-.5.1-.3-.3-.3-.1-.6.1-.2-.2-.4v-.3h-.1l-.1.2-.4-.3-.1-.3-.5-.3-.5-.6.2-.6v-.4l.2-.1v-.9l-.1-.7.2-.9.1-.1-.2-.6v-.5l-.1-.1-.1-.1h-.6l-.4-.5-.2-.5.1-.5.2-.4.2-.4v-.4l-.3-.1v-.1l-.4-1.3.2-1.1.1-.4.1-.2.1-.6.1-.2.2-.2-.1-.2-.3-.1-.2-.2-1-1.2v-.3l-.5-.3-.4-.4-.2-.4.1-.6-.1-.3.1-.8.5-1.4.1-.5-.1-.5-.1-.2.2-.5.2-.2-.1-.3v-.4h-.3l-.2.3-.1.1-.4-.1-.1-.1.2-.3v-.2l-.3-.2v-.3l-.5-.4-.9.3-1.3.4h-1l-1-.4-.2-.3-.7-.1-.6-.3v-.2l-.7-.4-.3-.9.1-.6-.2-.7-.1-.5-.4-.9.2-.9-.2-.5-.7-.5-.5-1.3-.1-.7-.2-.1-.4-1 .1-.6v-.5l-.3-.2.1-.5-.2-.2-.3-.2-.1-.5-.1-.3-.5-.3-.8-.2-.3.3-.5.2-.2.3-.6.6H159l.1-.6-.4-.2-.2-.5.1-.3v-.5l.1-.3.2-.2-.3-.2-.1-.3-.3-.2v-.3h.4v-.2l-.8-.2.1-.6.1-.1.1-.1-.1-.2-.6.3v.2l-.2.1-.5-.4.1-.5-.3-.4-.2.3-.3.3-.4-.1-.3-.1-.2.1-.1.2v.2l-.2.1.2.4.3.2-.2.5.1.1-.2.2-.7.1-.6-.1-.1-.3-.2-.2-.4-1-.4-.5.1-.2.3-.2v-.6l-.1-.6-.4-.3-.1-.5.1-.3.2-.2.2-.4h.3l.1-.4-.4-.5-.5-1-.2-.8-.3-.4-.3-.1-.4-.4-.2-.5v-.4l-.2.1h-.3v-.3l-.1-.2-.1.1-.3-.4.1-.5-.3-.2-.3-.1v-.4l.3-.4.3-.4.5-.5-.1-.2-.2-.2-.2-.7-.3-.4-1.1-.8-2.8-3.3-.5-.2-.3-.1-.2-.3-.3-.1-.4-.1-.2-.2v-.5l-.2-.3h-.4l-.5-.2-.4-.5-.6-.3-.4-.6-.4-.4-.2-.3-.4-.1-.3-.5-.2-.1-.2-.2-.3-.4-.2-.4-.4-.3h-.4l-.3-.1-.2-.1v-.1l-.2-.1-.1-.2v-.1h-.5l-.1-.3-.2-.3-.1-.2-.1-.4-.6-.4-.3-.1-.2-.2-.4-.2-.1-.1-.2-.2-.2-.3h-.2v-.2l-.3-.3v-.3l-.3-.1-.2.2-.1-.1-.1-.3-.3-.2-.2-.1-.1-.2h-.1l-.1-.2-.2-.1-.1-.2-.1-.4-.2-.2-.4-.1v-.1h-.2l-.3-.3-.2-.2-.3.1h-.1l-.1-.2-.1.1-.1-.2-.2-.1v.1h-.2l-.1-.1v.1l-.1.1h-.3v.2l.1.1.2.1-.1.1v.2l-.3.2h-.8l-.5-.1-.2-.3v-.2l-.3-.4-.3-.1-.2.1-.3-.2-.4-.3-.1-.5v-.3l-.1-.2-.3-.2v-.2l.2-.2h.2l-.2-.2-.4-.8.2-1-.3-.3-.3-.6-1-.1-.4-.3-.3-1.1-1.6-.7-.4-.9-.4-.9-.7-1.3v-.7l-.5-.7-.3-.7-.6-.3-.2-.5v-.5l-.4-.3-.3-.8-.2-.3-.2-.6.3-.5.1-.5.3-.8.1-.5-.3-.5-.1-.4v-.3l.3-.6.3-1.9-.2-.4.2-.8.1-1-.2-.6v-.8l.2-.6v-.6l-.3-.6-.2-.4v-.4l-.1-.4V81l-.4-.8-.7-1.2-.4-1.1.2-1.2-.2-.6-.3-.9.4-.9.2-.3-.2-.6-.2-.5.1-1.7-.2-.5-.2-.4.2-.5-.1-.6-.1-.4v-1.2l-.1-.4-.1-.2-.1-.2-.5-.3-2.1-1-.6-.5-.4-.6v-.8l.6-.6v-.2l-.7-.7-.8-.8-.7-1.1-.1-1.6.1-.7.4-3.3-.1-2.1.7-2.3v-5l.4-1.5.5-1.3 1.1-1.3.3-.7-.4-.9-.5-.7-.2-.8-.4-2.6-.2-.4-.5-.2-.2-.6-.4-.6-.6-.6-.8-.2-.3-.5-.4-.4-.5-.4-.5-.2-.9-.2-.2-.1-.3-.2-.1-.2-.5-.8-.1-.5v-.4l.1-.2.3.2.1.4.1.5.1.2h.2l.4.4.4.1h.4l.3.2.8.3 1.8 1.3.6.2.4.3.8 1.1.5.4.3.1 1.1.1.3.2.7.5.3.1.1.2.5.6.3.2.3.1 2.3-.1.7.2 1.3 1.6 1.5 1.5 1 .4.5.6.5.1.6.5 1.6.9 1.1.6v.4l.4.2.5.6.3.3.9.5.9.3.7.7 1.6.7h1.3l1.4.1h1.4l.3-.5.1-.2.2-.2.1-.4h.4l.3-.2.1-.5.5-.7.3-.1.1-.1-.3-.4v.1h-.2l-.2-.1-.2-.3v-2.3l.1-.5.5.3.1 1.5.6.5h.4l.4-.1.9-.4.3.7.8.4 1.5.8h.9l.5.5 1.4.7 1.7 1.2.8 1.2v1.2l.5 1.9.3 1.1-.3.3-.6-.1-.2.2.7.6 1.1.1.9.3.3.7 2.1.3 1.5.4 4.9 1 1.2.3.4-.1-.3-.3-.4-.1-.4-.3-.4-.6h.4l.5-.3h.5l.3 1 .4.4.4.9 1.3.8.5.3.6.2.1-.3-.4-.2-.4-.2-.1-.4.9.1.8.6.7 1.1.7.5-.2 1.3v1.6l-.1 1.8-.6 1.2-.2.3-.2-.1-.5-1.2-.2-.8-.2-.4-.2-.4-.2.1v.5l.9 2.7.1 1.2-.1 1.4-.3 2.4-.6 1.1.5 1.1 1.1 4.1 1.2 2.3 1.7 2.8 2.3 2.1 1.4 1.7.4 1 .3 1.4v2.7l-.4.7.2.2.2-.3.3.1h.3l.6.4.4.4.5.6.5.7.4.9v2.1l-.2 1.9v.6l.4.7.3.5.2.5-.2.9-.3 1.1.2.6-.4.7.2.5.5.2.7-.2.5.2.2-.1.5.3.4.5.6 2.1.4.6.5.7.4.7.3 1.4.2.6.6.7h.6l.2.3.2.5.8 2.1 1.2 1.2 1.1.8.1.8-.1.7.4.4.3.3.7.1.3.5v.8l-.2.7-.7 1.4-.4 1.1.2 1.1.6.4 1.2.5.5.7.2.1.1-.4-.1-.3.1-.2.2-.2.3-.1h1.6l.8.5.4 1.3.4 1v.9l-.4 1.4.5.3.6.5-.1.4.5.6.4.7v.4l-.3.4-.3.5-.1.3.5.2v.8l.4 1.5.1.4.1.3-.3.2-.3.3.2.2.5.2.6-.1.5.1.3.2.2.2.2.5.3.5.7.5.4.5v.3l.4.2.2.7.8.3 1.1.5.5.5.9.9h.7l.6-.1h.5l.3.7v.8l-.1.3-.2.2-.3-.2-.2-.2-.1-.4-.3-.4-.3.1-.5.4-.4.2h-.4l-.1.2.3.4.6.9 5.1 4.9.5 1.6.6 1.4.5 1.5h.3l.8.2.8.3 1.9 1.1 2.3.7 1.3.5 1.1-.2-.1.6-.3.4-.2.4.2.8.4.6 1.4 1.2.2.4.1.8.2.5.1.2.1.1.2.1h.5l.3.4.2 1.6 1.1 1.1.5 1.4.6.6.4.8 1 .2.7.8.4.6.4.6.9.2.5.5h.3l.4.3.3.3-.2.3-.1.3h1.5l.5-.7.7-.2.6-.1.8.4.6.6.6.6h-.3l-.2.1-.4.4.2.1.2.2.1.2.1.2.2.1.5.1h.2l.7 1 .2.1.1.4.3-.3.3-.6.1-.5v-.4l-.1-.4-.3-.1-.4.1.6-.7.3-.6.1-.5.1-1 .1-.4h.4l.4.2.1.4v.5l.1.3.1.3.3.5-1 .4-.3.1v.3l1.1-.3 1.2-.1 1.1.1 2.2.6.5.2 1 .7h.4l.2-.1-.4-.4.8-.1 1.8.8.7-.3.1.7-.4.4-1.6.2h-.4l-.2.7-.2.2-.2-.1-.2-.3-.2.4.1.4.3.3.5.1-.4.8v.6l.6.2 1.1.1-.2.4-.3.1h-.4l-.4.2-.2.3-.3 1.2.3-.4.4-.3.4.1v.6l-.3.5-.6.1-.6.2-.3.6v1.2l.9 2.3.3 1.1v2.2l.9.6.2.8v.9l.1.3.3.2.3-.1.4-.2.6-.5.2.3.2.2.4.1v.3l-.1.2-.1.2.3.4.8 1 .6.6-.4.3-.9-.1-.8-.1-1-.1.1.4h.7l1.1.2.5.4 1.4 1 1 1.3 1.1 1.3.5.2 1.1.6.7.2.7.2.8.1.8.2 1.3.4 1.9.5.9.8.3-.3.2-.4.2-.2.2-.2.3-.2h.8l.5.1.5.2.4.4 1.2 1.4.2 1.5v.7l.8 2-.6-.5-.9-1.4-.3-.5-.1.4 1 1.6.3.5.1.5.4 1.1.5.7.2 1.3.3 1.2.7 1.3 1.5 1.6.5.5 1.4.5 1 .5.9.1.1-.4.4-.3 1.4-.1 2.3.4 1.2.6v-.3l-.3-.1-.6-.3v-.3l.1-.2-.1-.2-.3-.1h-.4l-.3-.2.1-.4.3-.4.4-.4.5.1.2.7.3-.3.4-.2.1.5.2.4h.5l.5.1.2.4-.2.3.3.1.1.7-.7-.3-.6-.2-.4.1.3.3.9.1.9.3 1 .9.9 1.4 1.4 1 1.1 1.7.7.8.3 1.4.2 1.4-.4 2.5.1.5.3-.1.9-1h.6l.7.2-.1-.2-.1-.2-.1-.2.7.4.6 1.2.7 1.5.9-.1.1.5-.2.2-.3.1-.3.2.1.5.4.8v.4l-.5-.1-1.5-1.3-.6-.3v-.2l.4-.3.2-.6v-.7l-.2-.6-.4-.3-.7-.2h-.6l-.3.4v1.8l-.1.7-1 1.8-.2 1.1-.1.4-.3.3-.3-.1-.2-.3.1-.4.1-.4.1-.4v-.7l.1-.5.1-.3.2-.2.2-.3.2-.2.3-.8-.1-.4-.2-.1-.1.4-.1.6-.7 1.2-.1.2-1.1 2.2-.4 1.4-.6.7-1.2 1.3-1.1 2-.1.5-.1 1.6.1.6.2.8.2.5.1.4.1.5v.7h-.1l-.2.3-.3 1.3-.1.8.1.6.7.2.2.4.1.8v.8l-.2.7.4.5.1-.3v-2l.2-.4.3-.2.6-.1.5.2.7.3.6.5.3.4v.1l.2.1v.3l-.1.1-.2.3-.1.2-.1.6.1.6-.9-.4h-1l-.9.3-.7.5 1.2.3h3.5l1.1.3.8.9.7 1 .7.6.1-.6-.5-.8-2.1-1.8-.3-.3-.2-.4-.1-.4.2-.2.8.6 1 .5.4.1.3.1.2.4.2.7.4.8.4.4h.6l.8-.5.8.3.6-.5 1-1.6.7-.5 1.5-.5.8-.3.5-.5.4-1.1.5-.7.7-1.4.4-.4.3.5-.2.7-1.3 1.1-.3.7.1 1.2-.1.2h-.1l-.2.1-.1.1-.1.2.1.3v.2l-.3.5-1.7 1.7h-.2l-.2.2v.1l.1.4-.1.2-.2.4v.3h-.1l-.3-.2-.2-.7-.2-.3-.4.1-.2.1-1.1-.4-.4.1-.2.4-.1.4-.2.3-.2.1-.7.4 1.6 1.7 1 .7h.9l-.4-.6.1-.3.4-.3 1.6-.1h.2l.2.3-.1.2-.2.1-.1-.1.3.5.4.3h.4l.5-.4.2-.2.2-.2.1-.3v-.8l-.1-.2-.2-.2-.1-.4v-.6l.2-.1.4.1.6.1h.2l.3-.2h.1l.2.1.1.1.1.3 1.1.5.3-.1.2-.1h.2l.1.5v1.7l-.1.5-.3 1.1.2-.1.4-.4h.1l.3.1.1.2v.2l.1.3.4.6-.3.2-1.3.1.4.6.8-.1 1.7-.5 1 .2 1.2 1 .7.4-2.3-.7-1.3-.1-.7.6h1.1l1.3.1 1.3.4 1.9 1.2 3.3 1.4.5.3.5.4.4.5.3.7v.5l-.2 1.6.1.3.4-.6.8-3.7.2.2.8.4.3.3.1.5v1l.1.5-.4-.2-.7-.5h-.2l-.1.2.2 1.1.6.3.8.1.8-.1.5-.2.4.2.3-.2.4-.2.4-.1.2.2.7 1.3.5.6.4.3h.4l.4-.1.2-.1v-.2l-.2-.3.5.1.4.2 3.3 3v.3l-.1.4-.3.3-1-.5-1.3-.1-.6-.3-.6-.7-.2-.3-.1-.1h-.2l-.2.3-.1.2-.4.6v.2l.3.2.4-.1h.3l.1.5v.7l-.1.3-.2.1-.2-.1-.6-.4-.2.1-.2.1h-.2l-.1-.2-.4-1-1.9-2.2-.2-.6-.6-.4-.7-.1h-.7l.2.4.3.2.6.3 1.1 1 .8 1 2.5 5 .9 1.4 1.2.7.2-.1v-.2l.1-.2.2.1.3.3.2.1h.2l.2-.1.1-.4v-1.2l.2-1.1v-.7l-.1-.2-.4-1.8v-.7l.4.1 1.3 1.1.3.5-.4.9-.2.4v.6l.2 1.2-.1.6-.4.3.4.3.5.5.3.6.2.6-.3.8h-.5l-.5-.4-.2-.2-.6-.4-.3-.1h-.3l-.1.1v.2l.1.3.2.1.3.2.4.5.3.6.1.6.2 1.3.1.5.3.5 2.7 2.4 2.4 1.5.9.2-.4-.5-1.4-.8-.5-.4-1-1.1-.5-.4-.2-.2-.1-.4.7.2.8.3.7.6.6.6.4-.3.4.1 1.3 1.4.2.1.5.2.2.1.1.3v.5l.1.2.2.3.6.5.2.1h.5l.7-.4.6.4.4.7.6.4 1-.4.3-.2.8-.9.1-.3-.2-.2-.8.3-.5-.1.3-.4.4-.2.5-.1h.6l.5.3.3.3 1.2 2.7.1.5v.7l-.2.3-.3.3-.4.4h.5l-.1.1-.1.4-1-.8-.6-.3-.2.3.5.3.9.6.4.3-.5-.3-.4-.2-.5-.2-4.4-2.8-.3-.1-2.5-1.4v-.5l-.1-.1-.1-.2-.2-.2-.2-.2h-.2l-.1.4.2.6.6.6 7.3 4.5 1.9 1.9 1.2.8 1.2.6.4.4.1.8.4.4 2 1.4 4.5 3.1 1.7 1.6.4.3.6.2 1.5 1.2 4.3 4.6.9 1.7.4 1.5.5.6.5.6.5.7.3 1.6.3.7 1.3.5.6.4.9 1 .7 1.1.5.6.8.4.3.4.3.8.2.2.1.2 1.3 1.2.6.4.5.1.4.4 1.2 2.3.1.2.1.2.1.2-.4.3v.3l.6.4 1.1 1.7.1.5v1.6l.4.1.3-.1.3-.2.4-.1.5.3 3 3.4.6.5.3.2.6.2.3.2 5.9 7.6.3-.3.4-.3.4-.2.4-.1-.6.9v.3l.2.1.1.1.1.1.2.2 1.3.9.5.5 1.4 1.8 2.6 2.6 1 1.6.3 1.9h.2l.3-.4.3.2.3.4.2.5-.2.2-.3.2.4 1 .5 1.8.7 2.5.9 3.1.2 2.3-.3 4.8.3 1.9.5 1.2 2.6 4.3 2.7 5.4.5 1.4 1.1 1 .7.4 2.2 1.5 1.3.6.5.5.4-.1.2-.4.5.1.4.2.3.4.2.5.1.6.3.7.1.3-.6.3-.5 1-.4.6-.4 1.6.6 1.9.3 2.7-.5.8.1.9-.3.8.2.5v.9l-.1 1-.5.6-.6.6-.7-.1-.2-.2-.4.1-.2.4-.5 1.1-.6.5-.2.5-.4.1-1 .8-.7 1.4-.5.6-.2-.1-.2.2-.2.4-.2.7-.3.5-.3.8-.6.4-.3-.1-.3-.1-.4.4-.3.4.4.4.6-.5 1.1.6 1.2.1 1 .5.7-.2.6-.5.2-.3.6.3 1 .9.6 1.5.3.5.9.4.6.7-.1 1.1-.2.7-.3.4-.4.5-.6.2-.5.6-.9.6-.9.1-2.2.2-.5.3-.5.1h-2.2l-1.4.2-3.4 2.2-.5.5.3.8.4 1.1.6 1.3.9.4.6.9.5 1 .3.2.5.4.3.3.2.5.2 2.2v1.5l.1.4.3.6.1.4.1.6 1.9 2.8.8 1.4.4.6.9.8.4.5.2.6.9 1 1.7 2.8 1.5 1.8 1.9 1.7.6.4.6.6.3.1.4-.1h.4l.9.8.1 1.9.2.2.2.2.2.2v.4l-.1.6v.3l1 .4.3.7.4 1.6.7.8 1.1.8 2.5 1.3.2-.3h.4l.4.1.2-.1.5-.3h.3l.5.1v.4l-.1.9-.1.9.2.2.7-.1.9-.2h.2l.3.1.1.2v.2l.2.2.4.1.4-.1.2.1.1.5.2.3.3.3 1.2.5 1.3.4 2.8.6.6.4 1.1.5.4.7.4-.3.3-.5.3.2.3.3.2-.1-.1-.5.3-.2.5-.1.5.2-.1.6.2.1.3-.3h.4l.7.6.2.6-.2.3-.7.1-.1 1 .5.2.6.2 1.7.6 1.9.7 2.9 1.5 3.5 1.7.8.9 5 3.6 1.7 1.7.2.2 1.1 1 .4.8-.7.9.1.4.4.1 1 .6.5.4.5.3.3.4.3.2 1.1 1.3 1.6 3.8.8 1.4 2.4 1.1 1.4.8.5.4.6-.2 1.1.4.5.3 1.7.6.6-.1 2.5 1.1.5-.1.4.4 1.7.2 1.1.1 1.6.6 2.9 1.5 4.4 1.8 1.6.3 2.9.3 2.7.9 1.2.1 1.7.7 4.2 1.2 1.8.9 1.2.6h.5l.2-.2.2-.1.6-.3.5-.6.6-.4.3-.6 2-.3 1.5.6 1.8.8 1.9 1.1.5.2 1.4.7 1.2 1.3.1.7.4.4.4.8 1.5 1.2.8.5.8 1.2.1 1.2.9.3.5.2.1.6h.5l.3.3h.4l.1.5.9-.2.9.1 1.2 1 .3.4.3.5-.1.6h-.4v.4l2 .7 1.4.7 2.7.9 2.5 1.5.4.7 2.1 1.3 1 1 .5.6.1.7-.4.2.2.4.5-.2 1.1.5 1.7.6 1.7.6 2.1.6 1.7.6 2.1 1 1.9.6 2.8.9 7.7 2.7 2.7 1.1 2.1.8 1.6.6 1.6.4 2.3.9 1.1.5.1.3.7.8.2.1.2.8.2.2.4-.1.3-.3-.2-.1-.3.1v-.2l.3-.3.5-.2.5.1.2.2.3.3v.2l-.2.1-.2-.1-.2.3v.3l-.2.1.2.2h.2l.3.1.2-.2.2.1.2.2-.1.3-.4-.2-.2.1.3.1.1.2.3.2.2-.3h.2l.8.6 1.7 1.4 1.7.7.8.3.8.3 1 .2 1.5-.1h2l3.8.6 2.1.5 5.2 1.4 6.2 2 1.2.5h.6l1 .2.2-.4.1-.2.5-.1.3-.1h.3l.2-.2.5.2.4-.1.3.2.1.2.9 1 1.2 1.7 2.5 2.3 1.2 1 .5.7v.3l-.1.1v.1l.4.2.1.1.2.1.4.1.8.3 2 .7 4.1.8 3.1 1 .6.1.2-.1.2-.2.2-.1v-.1l.2.1.1.1.1.3.7.1.6.3.4-.3.4.3.5.3.4-.1-.4.5-1-.2-1.8-.5.5.6 1.1.5 1.1.4 3.3 1.8 1.2.7 2.1 1.6.5.3.2.1.3.3.3.2.8.3.6.5.6.2 1.7.4 1.1.2.3-.2.4-.3 1.4.1 1.9.4.8-.2 2.2.8 2.9.3.7-.3 1.9.3h.6l1.9.5 1.5.5 1.8 1.2.8.4.5-.1.5.9-.1.1.8.7 1 .2 1.9.6 2.7 1.6 1.3.1 3.9.7 2.1 1 1.8.7.2-.2.7.1.7.1.6-.1.5-.4.8-.3.4-.5 1 .2 1.2.2h2.4l1.6.1 1-.7 2.5-1.1-.1-.5.4-.3.3.1.3-.1.2-.2.4-.1.8-.6.7-.1.8-.5 1.1-.3.3-.4 2.3-.5.3-.2.9-.3.8-.2.7-.2.7-.1v-.3l.3-.2.5-.3.7-.2.8-.1 1.4-.1 1.5-.6.2-.4.8-.1.3-.4 2.4-.3.1-.3h1.9l.2-.3v-.5l.9-.3.4-.4.4-.2-.2-.7.8-1 .5-.3 1-.2.3-.3h.4l.1-.2v-.3l.4-.3.6-.2.1-.5.4-.3h1.1l.3-.3.9.1.3-.1-.1-.3-.1-.2.2-.2h.9l.6.1h1.2l1.5-.2.8-.2 1.4-.1 1.6-.4h2.5l1.6.5.2-.2-.5-.8-.9-.3-2.9.1-1.1-.3 1-.1 1.3-.3 1-.5-.2-.5-.3.1-.5.6-.3.2-.7.2h-.4l-.9.1h-1l-1.1-.1-1.4-.3-.7-.2v-.4l.4-.5.2-.2.3-.1.3-.2-.2-.5h1.8l.4-.3 1.3-2 .6-.6.8-.4.8-.1.4.1.4.4.4.3.2.3.2.5v.3l.1.4.5.5.3.5-.3.4-.4.3-.4.3v.4l.1.3.4.6.4-.3.5-.9.5-.1.8-.5v-.1l.2-.2.4-.4h.1l.4-.1.1-.1.1-.2.1-.5.2-.1h.5l.3.3.5.2 1.2.4.4.4-.2 1.4-1.2.9-2.8.8-.4.3-.1.4.2.3.7.2h1.9l.5-.3.6.3.8.1 1.5.1h2.9l1.5.3 1.1.7.4.3 7.2 3 4.8 2-.2-.4-.5-.3-1-.4-.4-.3-.8-1.2-.8-.6-.4-.2-.6-.2-2.2-.5v-.2h.4v-.2l-1.1-.7-.5-.2-.3-.1-.8.1-.6-.2-1.3-.4-.8-.1v.2l2.4.9-.9.2-1.6-.7-2.9-1.9.4-.1.3-.1v-.2l-.4-.1-.2-.1-.1-.2.1-.1.3.2h.2l.1-.6-.1-.5v-.5l.6-.2.7.1.4.3.7.7 1.1.9 1.3.7 1.3.4 1.3-.2.7-.3.6-.3.4.2.2 1 .2.4.4.5.6.5.3.2 1 .6 3.8.8.8.4.4.6.3.7.7.8-.4.4-.4.2h-.3l-.2-.4-.4.1-.8-.1-.4.2 5.9 3.5 3.2 2.1 5.3 4.3.5.3 7.7 6.5.9.4.4.4.5.9 2.9 3.3 2.5 1.8.5.9.6.4 1.3.6 1.9 1.5h.5l-.4-.4.2-.2.3.1.1.5.5-.1.7.2.6.2.5.3.4.6.2 1.3.4.7-.5-.2-.4-.5-.2-.6v-.6l-.3-.3-1.4-.4-.5-.3v.6l.5.9 3.9 4.4 6.1 6.3 4 4 2.4 2.3 1.7 2.1.1.1.7-.1.5-.7.7-1.9.7-1.3.1-.5v-.6l-.6-1.6v-.2l.1-.5-.1-.3-.3-.8V620.6l.1-.4.7-.8.3-1-.1-2 .1-1.1.4-.3.4-.2h.4l.4-.2.3-.4.7-1.4-4.1-5.3-.3-.6v-.6l.2-.6 4.3-7.4 2.5-4.3 2.5-4.3 2.2-3.8 2.8-4.9.4-.5.5-.3h39l.6-.1.6-.2.1-.2.2-.5.1-.2-.3.1-.1.1h-.2l-.2-.6.8-.6-.4-.4v-.2l.7-.3-.2-.3-.9-.5-.2-.7.3-.4.4-.3.3-.2-.4-.2-.3-.2-.1-.3.4-.4.1.1.1.1h.4l-.1-.2-.2-.3-.1-.2h.2v-.2l.2.1.3.1.2-.1v-.3l-.2.1-.5-.2-.3-.3.2-.1.6-.2.5-.4.2-.5-.3-.5h-.2v.3h-.2v-.5l.3-.2.5.1.5.1-.4-.6-.1-.2v-.9h-.2l-.3.1h-.5l-.3-.2-.3-.1-1-.2-.1-.2.1-.2-.2-.4-.2-.2-.3-.2-.3-.1-.8.4-.2-.3-.1-.7h-.3l-.8.2-.2.1-.2-.1-.4-.1h-.5l-.4.1.1-.3.3-.3.2-.2v-.3l-.3-.3h-.5l-.3-.1.3-.5-.2-.6.2-.5.1-.5-.4-.2-.1.2-.1.1h-.1l-.3.1v-.2l.4-.8-.4-1.2-2.2-3.1-.4-.3-1.1-.6-.5-.4.1-.4v-.2l-.4-.3-.3.3h-.4l-2.2-.7-.5-.3-1-1-.6-.3.5-.5-.1-.3-.4-.1h-.6v.2l.1.3v.3l-.3.1-.1-.1-.4-.4-.2-.1-1.2-.5-.4-.3-.1-.7-.2-.4-1.1-1.3-.2-.3-.1-.6-.2-.2-.3-.1-.8.1-.3-.1-1.1-1.3-.3-.4-.1-.4-.2-.5-.1-.3-.3-.1-.7-.2-.1-.2v-.5l-.2-.6-.3-.6-.3-.3h-.9l-.9.1-.6-.1-.2-.8-.5-.2-1-.2-.7-.4.1-.5h.2l13.9.1v-18.2l.2-.3.7-.2h36l6.9.1h13.9v-2.9l.2-1.3.2-.4.5-.6 2.6-1 .7.3.5.5.4.5.6.4h1l.4 1 .4.3 1.3.7.3-.1.2-.2.1-.8.2-.2 1.6-1.2.3-.4.4-1.3.2-.3.4-.4.5-.2.3-.3.4-.5v-.4l.1-.7.1-.3.8-1.4.1-.3-.1-.5-.1-.1.9-.7.9-.4.4-.3.3-.5.1-.5.1-.5.1-.6.3-.5 1-1.2.4-.6.1-.4.1-.8.3-.8.2-1 .1-.4.3-.2.9-.8.3.1.3.1.4.1h.2l.7-.2.3-.2.2-.1.2.1.3.3.2.1h.2l.2-.1.2-.1h2.2v-.1l.1-.1h.1l.4-.1.3-.6.7-1 .1-.6.9-1.6.7-1 .8-1.6h.1l.4-.2.2-.3-.3-.2-.3.1-.4.3-.2.3-.2.2.1-.6.2-.4.1-.4-.1-.6-.4.6-.6.7-.6.5-.6.2.1-.3.1-.3.2-.3 1.4-1.2.2-.1.8-.1.5-.1.4-.4-.1.4-.1.6.3.2.2-.1.3-.5.2-.6v-.5l.3-.9.6-.9.8-.9.7-.6.2 1.4.2.5.3.5.3.6v.7l-.1 1.3-.1.2-.1.2-.1.2.1.2.2.2.1.1.1.1-.1.4-.3.5-.1.3-.2.6-.5.6-.3.7.2.8-1.1 1.2v.2l-.1.5.1.6.3.2.8.2 1.6.9.9.3h.6l.3.2.1.4.2.5h-.1l-.2.3v.2l.2.2.9.2.1.3v.7l.5.6h.1l-.1.5-.2.4-.1.3.2.4.1-.2.2-.3.2-.3.1-.4v.5l-.1.9-.2.8-.2.4-.3.2.1.5.4.1.5-.6.2.7v.9h.2v-2.2l.1-.5.5-1 .1-.5.1-.5 1.6-2.3.2-.7.2-2.4.2-.5.4-.7v-.7l-.1-1.5.1-1.4.5-1.2.6-1 .7-.9.6-1 1.1-4.1.7-4.3.7-1.1 1.1-2.7-.3-.8.4-.6.4-1.8.3-.8.8-1.2.5-.5.6-.3v-.2h-.6l-.4.3-.3.5-.4.3.6-1.4-1.4.1-.8.3-.3.4-.2.6-.3.6-.8 1-.7.6h-.3l-.3-.2-.6-.2-.3-.3.2-.8.7-1.4-.5-.1.2-.4.3-.4h-.3l.4-1.3 1.2-1.1 1.4-.7 1.2-.3-.2.4-.1.4-.2.3-.6.2 1.1-.2.3-.1.9-.9.2-.1.5-.2.5-.4.5-.6.3-.7.3-2.2.2-.3.2-.3-.3-.8-.6-1.2v.6l-.3.8.1.2v.3l-2-.3h-.6l.4.2.4.1.9.2h1l.3-.1v-.3l-.2-.3.4.1v.6l-.4.7-.9.2v-.3l.4-.2h-.1l-.3-.2-.2.2h-.2l-.2-.2h-.3l-.1.2v.2l-.1.2-.2.1h-.2l-.6-.5-.9-.2-.5.2-.9.3-.3.2-.4.5-.4.5-.4.3-.6.1.2-.6.1-1 .2-.5h-.8l-.3-.1-.2-.1-.1-.3-.9-.6-.3-.5-.1-.5v-.7l.1-.7.2-.4.3.1h1.7l.4-.1.1.4-.1.6-.3.4-.4.2.4.1.3-.4.4-1.1.6-1 .3-1 .5-1.1.7-1h.5l.2-.5.2-.1.3.2.3.3h.2l.3-.2.2-.3.1-.1.3-.3 1.3-2-.3.2-.1.1-.2.2.1-.3v-.5l-.1-1.1-.1-.2-.3-.3v-.3l.1-.2.2-.1.2.1.1.2.1.6.1.3.6.5-.1 1.3v.4l-.2.4-.2.1-.3.2h-.3l-.1.2V457l.2-.4.4-1.5.2-.2h.3l.1-.2.3-1.2v-.3l-.1-.8-.7-1.3-.3-.8-.1-2.8.2-1.4.7-2.7.4-1 .6-.9 1-.7-.2-.2v-.3l.2-.3.5-.1.3-1.1 3.8-5.6 1.7-1.8 1.3-.8.5-.5 1.7-1.1.4-.4.6-1.1 3-3.3 2.1-3.2v-.3l.8-1.8.5-1.8.1-.4v-.7l.1-.3.1-.2.2-.2.5-.2.2-.1.1-.1H996.4v-.4l-.2-.3v-.3l.4-.9.1-.2.7-1.5.2-.4.1-.3-1.5.2-.8-1.6-.3-2.2v-1.6l.1-.4.3-.9v-.9l-.5-1.7-.4-.2h-.8l-.6-.2h-.3l-.1.4-.4-.1-.3-.1-.2-.3-.1-.6-.1-.3-.3-.3-.1-.3-1.7-2.5-.9-.9-.5-.3-2.1-.8-.8.2-3.4 1.7-.9.3-.7-.2-.3-.1-1-.2H978.1l-.3.2-.3.3-1 .9v.4l.1.3.3.1.3-.1-.2-.1v-.2l.6-.2.8-.7.5-.2.1.2.1.5.2-.3.7.3.7.2h.8l.6-.4.5-.4.7-.4.7-.2h.7l.5.2.1.1v.2l-.1.3.1.3.1.3.1.3-.2.3-.2.3-.4.6-.4.3-2.2 1-.6.1-.5-.2-.6-.2h-1.9l-1.8-.6-.7-.1-1.4.2h-.6l-.3-.4h.2l.1.2h.2l.2-.1.2-.1-.4-.1-.2-.2-.1-.2-.2-.2H971.8l-1.7-.7-2.1-.3-.2.2.5.4.6.1 1.4.1-.5.2h-.6l-1-.2h-2.1l-1.1-.1-1-.4-1-.5-.7-.6.6.2 2.3.4.4.2.3.2.4.1.4-.1.3-.1.3-.2-.1-.1-1.9-.6-2.8-.4-1.3-.3-2-.9-.7-.1h-2.7l-1.4-.4h-.4l-.3.1-.7.3-.9.1-.7.3-.6.3-.2.3h.3l1.3-.3 1.1-.6h.7l.8.1.6.3-2.1-.1-.4.2-.4.3-.6.2-1.7.2-1.1.3-.5.1-.6-.1-1.1-.5-.5-.1h-2.5l-.6.1-1.1.6-.6.2-2 .2-.6.3-2 1.8-1.1.7-3.8.9-1.1.5-.6.2-1.4.1-2.1.6-2.7.5-.2.1-.7.3-.3.1-.3-.1-.8-.2-1.3.2-2.5.7-6 .6-4.4.8h-2.5l-3.4.6-3.2 1.2-.6.1-.5.2-1.9 1.4-1.7.6-1 .1-.3.2-.7.3-1.1.9-2.1.8-.6.5-3.6 2.2-.5.6-.3.5-2 6.1-.6.9v.2l.8-.3.6-.8.4-1 .1-.8.1-.2.6-1.3.4-1.8h.2l-.1 1.1-.7 1.9-.4 1.9-.1.1-.4.6-1.7 2.1-.4.9-.2 3.3-.7 2.8v1.5l.5 2.8-.1 1.3-.4 1.9v.8l.1 1.8-.3 1.7-.1 2.6V447.5l1 1.9.1.5v.6l-.1.5-.3 1.4-1.3 1.4-2.8 2-1.8 1.3-.6 1-.6 1.4-.2.8v.5l.1.6.1.7-.1.7-.3 1.4-.5 6.5-.4 1.1-.8 1.1-1.1.9-1 .4-.7.4-2.5 3.2-2.4 1.7-1.5.5-.6.3-2.6 2.4-3.8 1.7-2.7 1.7-2 1.2-1.6 1.2-.7.9v.2l.7.1h.6l.4-.2.7-.5.1.2.3-.2v-.7l.8-.7 2-1.1 2.1-1.7.7-.1-.5.7-.8.8-1 .7-1.5.5-.7.5-.6.8-.5.8.6.2.9 1.2.7.2.2-.2.1-.2.1-.2.3-.1h.4l.3.2.5.5.6 1v1l-1 2.5.4-.2 1.5-.4.8-.5h.4l.6.2-.5.3-1.2.4-.3.3-.2.2H854l-.2.2-.5 1-.3.4-.4.2-.5.3-.5.1-.5-.2-.9.5-1.8.7-.8.4-.2.2-.7.8-.2.4.2.1.8-.3h.3l.1-.3.1-.3.1-.1h.2v.4l.2 1v.4l-.3.2-.3-.1-.2-.3-.1-.5-.5.3-.7.2-1.6.2-.8-.1-1.4-.3-.6.2-.9-.5-1.9-.5-.9-.4-.2.5.3.5.5.4.3.4-.4.1-.3-.1-.3-.2-.3-.2.2.6.3.5.1.5-.3.5-.4-.1-.6-.5-.6-.5-.2-.5.2-.5.8-.9.1-.5-.4-.4-1.2-.4-.6-.3h.2v-.3l.5.3-.2-.5-.3-.3-.4-.2-.4-.2.4-.7-.8.3-.4-.1-.3-.3-.7-.3.2 1 .7.7.9.6.8.6-.6-.1-.6-.3-.5-.4-.2-.4-.2-.2-.4.1-.7.2-.4-.1-.3-.1-.6-.5-.5.3-.2.2.1-.4.1-.3.2-.3.3-.2-.1-.2-.1-.3v-.2l.3.3.4.1h.4l.4-.1v-.3h-.5l-.2-.2.1-.1.5-.1h.3l.1.1h.1l.7-.5.2-.1h.2l.2.3-.1.4-.1.3.3.2h.9l.4-.1.3-.2v.3l-.2.2.4-.1.3-.3.2-.3v-.4l-.2-.3-1.7-1.1-.9-1-1-.2-2.5-.1-4 .5-3.3.3-3.6.2-2.3.7-.2.1-3.3.8-.7.1-1.4-.1h-.8l-.4.3.1.4.7 1.5.2.7-.2 1.4v.7l.2.5-.2 1-.4-.9-.3-3.2-.4-1.1-.1-.2-.3-.1-.3.2-.1.3-.3.5-.6.9-1.5 1.4-1.6.9-2.6.7-5.1.1-.7.2-.5.3v.3l.7.1.7.2.2.6-.2.5-.6.1.2.2-.2.2-.5.7h-.2l.1-.5.3-.6v-.5l-.2.2-.5.3-.5.2h-.3l-.2-.3v-.8l-.2-.3.3-.1.3-.3.3-.5v-.2l-4.7.2-4.4-.2-3.4.5-1.4.3-5.9 2.2-.3.3-.3.3-.6.2-.6.3-.2.7.3-.4h.7l.4-.2 1-.8 1.4-.2.2-.2.3-.3.2-.2 2.2-.7.4-.3.2-.2.4-.2.4-.2h.3l.1.1.3.8-.4 1.1-.4.4-2 .4-.7-.2-.2-.6-.4.3-.4.2-.5.1-.4-.1-.2.2-.4.2-.2.2-.1.3.1.2.2.2v.3l-.3.4-.4.3-.6.1-2.5.4-.3-.2.1-.4.2-.4.3-.3.2-.4-3.5 1.2-.6.3-.5.5-2.4.5-.9.4-.7.4h-.1l-2.2.6-4.6.7-1.1.5h-.7l-.9.2-.9.1-1-.4-1-.1-.4-.2-1-.7-.1-.1-1.5-3.2-.8-.9-2.1-2-.6-1.1-1-2.5-.5-1-.7-.4-1.5-.1-.5-.3-4.1-.6-.7-.3-.3-.5-.2-.6-.4-.5-2.7-1.8-1.1-1-.5-.3-.6-.1-2.1-.1-2.8.2-4.2-.1-2.7-.5-2.6-.9-2.1-1.7.1 1.5 1.7.9 2.1.7 1.2.8-.5.5-.7-.4-.7-.7-.5-.3-.7-.1-3.4-1H712.4l-.1.1v.2l-.1.1-.7.4-.4.1h-.5l-.3-.2-.4-.5-.1-.5.3-.2.5.1.9.3.5.1v-.3l-1.4-.9-.7-.6-.3-.6-.5-.2-1.2-.6-.7-.6.7-.3.7.1 1.1 1.2 1.8.5 1.4 1.1.8.5.1-.9-.1-.3-.4-.3-.6-.3-.7-.2-.5-.1-.7-.2-.7-.5-1.1-1.1-.7-.9-.5-1-.5-1.2-.4-2.4-.2-.4-.5-.1h-.8l-.8-.1-.6-.5-.5-.5-.4-.7-.4-1.7-.3-.5-.2-.6-.1-.8-.3-.4-.8.3-.5-.3-2.6-2.2-.7-.4-.4-.6-.3-.8-.2-1.2-.4-1.1-.1-.5.4-.8-.2-.6-1.1-1.3-.3-.6-1.1-3.9-.3-2.9-1.1-3.3-.5-1-1.7-2-2.1-3.3-2.1-2.5-1.1-1.9-.2-.3-.4-.1-.2-.1-.3-.3-.3-.4-.4-.9-.6-.7-1.9-1.7-2.2-2.6-.9-.8-.4-.6-.5-1.3-.6-.5-1.3-.7-1.1-1-3.6-4.5-1.5-3.1.3-.4.1-.1.2-.1-.3-.6-.3-1.2-2.2-3.9-2.2-4.3-1.9-5.1-.2-1.2-.3-.5-.5-.2v-.4l-2.1-4.3-.2-.7.4-1.4v-.6l-.4-.4-.4.3-.5.2h-.5l-.5-.3-.5-.5-2.5-4.6-.5-1.3-.5-2.9-.6-2.3-.1-2.8-.3-1.4-.7-1.9-.3-.6-.2-.4-.6-1.2-.1-.8.4 1.1 2.6 4.7.9.6.3.8.5 2.3.1.4.1.3.7.6 1.5 2.2 1.7 1.8.5.8 1.5 1.4 1.2.8.7.6.3.5-.1.6-.1.6-.2.5-.3.5-.3-.2-.6.1-.6.3-.5.4-.6.6.1.3.2.2.2 1.1.8 1.7.4 2.3h.3l.2-1.5.2-.8.3-.6.4-.5.9-1.5.1-.6.3-1.4.5-1.5.1-1.3-.9-1.5-2.2-1.5-.4-.4-.3-.2-1.7-1.6-.6-.3-3.2-3.9-4.7-8.8-.4-1.2-.1-4.2-.2-.7-.6-1.5-.2-.4-.1-.3-.2-1.8-.2-.4.1-1-1-3.5.7-2.8v-.9l-.1-.6-.1-.3h-.1l-.4.4-.1.5.2 1-.1.4-.2.3-.4.2h-.4l-.3-.3v-.5l.1-.5 1.1-2.5-.1-.7-.6-.7.8.3.2-.1.2-.2v-.5l.1-.2 1-1.1.3-.5.9-3.6.4-.4v2.6l.3-4.2-.8-9.9.3-6.2.5-3.3.7-7-.4-1.2-.3 1-.1 2.3-.2.9h-.2l.2-3.1-.2-.9-.4-.4-.7-.1h-.9v-.2l2.3.2.5-.2.3-.6.2-7 .2-1.4.1-1.2 1.8-14.9 3-11.5 3.1-11.6 4.4-7.3 1.8-3.9 2-5.1.4-1.4.3-.6.3-.7v-1.6l.3-.7-.4-1.4.9-4.8-2 .2-1.6-.1-.4.1-.1.6-.5.5-.8.2-.5-.3-.7.5-.2.2.1.6.2.8v.7l-.6.3-.3-.1-.2-.2-.1-.3-.2-.2h-.2l-.1.2v.2l-.1.1-.7-.1-.3-.5-.2-.5-.2-.3h-.7l-.5-.1-.5-.2-.6-.4-1.4-1.5-.9-.4-.3-.5-.3-.5-.3-.5-.6-.5-.6-.3-.6-.1-2.7-.2-.5-.1v-.5l-.7-.2h-2.4l-2 .2-1.8-.2h-.4l-1 .5-.7.2-.3-.1-.2-.9-.6-.1-1.5.4-1.1-.1-1.2-.3-2.5-1.3-.3-.3-.7-1.2-.2-.2h-.8l-.4-.1v-.4l.3-.7-.9-.2-1-.6-.9-.3-.5.6-.6-.8-.9-.3-1-.3-.9-.5-1.9.7-.4-.1-.3-.2-.7-.6-.2-.1h-.3l-.1-.2.4-.5-.3-.3-.4-.1-.4-.1-.4.1.1-.6-.3-.5-1.1-.6-.5-.6-.1-.2h-.3l-.2.2h-.3l-.3-.2-.2.3h-.3l-.3-.1-.3-.2-.7.2-1.2-.9-.5.5-.3-.5-.2-.2h-.8l-.5.2h-.4l-.2-.4-.2-.1h-.6l-.6.1-.6-.1-.7-.6v-.3l.2-.5.2-.4.2-.4-.1-.5-.4-1-.3-.5-.8-.2-.8-.3-.2-.8v-.1l-1.3-.1-1-.4-.3-.8-.2-.4-.6-.8-.1-.4.2-.3.3.1.4.3.4.2-.1-.4.1-1.6v-.6l-.4-1.1v-2.3l-.1-.1h-.2l-.1-.2-.1-.3-.1-.2-.5-.4-.6.5-.3.3-.2.4-.1.4-.1.3-.1.3-.2.3-.9.4-.4-.5-.4-.7h-.6v-.4l.2-.4.3-.2h.4l.2.3.1.4v.5l.1.2.3.1.1-.3-.2-.7.2-.4.2-.3.2-.4.1-.5-.2-1.6-.2-.7-.3-.5-1.2-.6-.4-.5.4-.7.1-.5-.6-.3-.7-.2-.4-.2-.1-.2-.3-.5v-.3l.1-.3.7-1.2v-.6l-.2-.3-.1-.2-.1-.1.1-.8.5-1.5.1-.7-.1-.7-.2-.6-.3-.6-.5-.5-.1-.1-.3-.2-.1-.1-.1-.3v-.1l-.2-.1-.9-.4.2-.3.5-.6.1-.4.1-.3.1-.5.1-.7.3-.8.1-.5V192.3l-.1-.5-.1-.3-.3-.2h-.5l-.2-.2v-.3l.1-.8v-1.5l-.2-.5-.7-.6-.6-.3-.5-.2-.2-.1-.4-.7-.3-.2-.4.1-.7.4h-.3l-.1-.1-.4-.6-.2-.2h-1.1l-.1-.2-.2-.2-.4-.6-.2-.2-.1-.3-.1-.5-.1-.3-.3-.1-.5-.2-.3-.2-.4-.4-.3-.5-.3-.3-.1-.1-.8-.1v-.2l-.3-.4-.5-.4h-.1l-.1-.4.1-.7v-.4l-.3-.3-.2-.2-.3-.2-.1-.4.3-.5.1-.4-.1-.1-.5-.3-.5-.5-.5-.7-.3-.5.3-.5-.4-.3-.6-.1-.5-.2-.4-.6-.3-.4-.3-.5-.2-.6.1-.2v-.2l.1-.2-.3-.1-.4-.4-.4-.5-.1-.2-.1-.5-.2-.8-.6-.6-3.1-1.6-.5-.1-.2-.2-.2-.5v-.5l-.1-.3h-.2l-.9-.2-.5-.4-.6-.6-.3-.7.2-.6v-.6l-.5-.8-.9-1.2-.3-1.3-.1-1.3-.1-.2-.3-.2-.2-.3-.1-.4.2-.3.9-.5-1.3-.5-.6-.4-.5-.7v-.4l.1-.9-.2-.3-.3-.3-.7-.4-.4-.2.1-.6-1.2-1.6-.4-.8-.8-3.4-.2-.4-.1-.2-.2-.3-.1-.2-.2-.2h-.5l-.2-.1-.1-.2.2-.5-.1-.3-.1-.1-.5-.2-.1-.2-.2-.5-.3-.4-.4-.3-.2-.2v-.5l-.1-.4-.1-.3-.2-.2.3-.8-.2-.7-.6-1.5-.2-2.1-.3-.5-.3-.1h-.4l-.3-.1-.2-.3-.1-.2-1.7-1.3-.2-.5.3-.8-.7-1.2-.4-.6-.6-.4-1.5-.8-.3-.2-.6-.8-.7-.6-2.3-1.1-.4-.2-.3-.3-.2-.4-.2-.3-.2-.5-.1-1.1-.2-.6-.3.3-.4.1-.3-.1-.2-.1h-.3l-.4.2-.5-.6-.9-.3-1-.1-.6.3-.2-.2v-.1l.5-.8-.1-.5-.3-.3-.6.1-1 .9-.6.2-.8-.3-.2-.3-.1-.3.2-.3.7-.1.4-.3.5-.8.4-.9.1-.8-.4-.6-.6.2-.7.5-.3.8-.1.2-.4-.1-.3-.4-.2-.3v-.4l.1-.5.2-.4.3-.2.1-.6-.3-.1h-.8l-.4-.2-.3-.3-.2-.3-.4-.9-.2-.7-.5-.8-.2-.4-.1-.5.1-.4-.3.1-.3.1-.3.1-.4-.1-.3-.1-.2-.5-.3-.1-.6.2-.5.4-.5.3-.6-.2.1-.3.2-.6.1-.2-.1-.3-.2-.3-.3-.1-.1.2-.1.7-.3.4-.5.1-1.7.3-5.1-.8-.2-.2-.1-.4h-.2l-.4.3h-1.1l-.6-.2-.3-.1-.3.2-.2.2-.2.1h-.3l-.3.1-.4-.3-.5-.3-.5-.2-.5.5-.8-.2-3 .3-1.1-.5-.4-.3-1.5-.8-1.1-.1-.4-.2-.2-.7-.6.1-.4-.3-.4-.4-.6-.1-.3.1-.3.7-.3.2h-.4l-.2.3-.2.3v1l-.1.4-.8 1.1v.1l-3.5-.3-.2.1-.3.5-.3.2-.2.2-.2.1-.1-.1-.2-.4-.1-.1-.6.3-1.1.6-.6.1h-1.4l-.2.3-.1.2v.4l-.1.4-1 1.6-.1.5h-.1l-.5 1v.1l-.3.6-.2.2-.4.2.2.5-.1.1-.3.2.1.5-.1.2-.3.3-1 2.6-.2.4-.2.3-.1.5.1.4.1.4v.4l-.3.5v.2l.2.6.1.1-.3.2h-.4l-.2.1-.4.3-.2.2v.4l-.1.7-.4 1.4v.4l.2.4.8.5.3.4-.4.1-.8.2-1.4 1.1-.2.3-.7-.4-.6.5-.9 1.9-.2.3-.3.3-1.2.6-.3.3-.2.3-.1.7-.2-.1-.3.1-.1 1.2-.4 1-.8.4-1.3-.2-1.7-.5-1.9.1-.4-.3.1-.6.1-.2-.5.2-.2.1-.4-.6h-.2l-.3.4-.4.2-.4-.2-.9-.9-.3-.1-.4-.2-1.3-.7-1.7-1.6-.1-.3-.1-.3-.1-.2-.3-.2-.2-.1-.9.1-2.8-.7-.9-.5-1.5-1.3-.3-.2-.4-.1-.2-.2.3-.8-.2-.3-.3-.3-.3-.1-2.2-.1-2-.4-2.9-1-1.2-.7-1.5-1.7-1.1-.5-.7-.6-1-1.2-.6-1.3-.2-.2-.2-.1-.8-.5-.5-.7-.8-.2h-.9l-.5.3-.4-.5-2.5-1.6-.3-.1-.2-.2-.1-.3-.1-.3-.1-.2-.5-.5-1.5-1-.4-.5-.1-.4v-.3l-.1-.6-.2-.5-.6-1-.2-1.6-.5-.5-.5-.5-.6-.6-.1-.3-.5-1.7-.6-.8-.1-.3-.1-.2-.4-.5-.1-.2-.1-.4.1-.5v-.3l-.6-2-.1-.9.1-.7.4-1.3.2-.9V95l-.1-.8-.4-.6-.6-1.3-.3-.3-.6-.3-.2-.1-.4-.8-.4-1-.4-.9-.6-.3-.2-.2-.1-.4v-.4l-.1-.3-.2-.2-.4-.3-.2-.2-.3-.4v-.5l.1-.5-.1-.4-.3-.5-.1-.4.1-.2.1-.4V83l-.1-.1-.5-.3-.1-.4v-.8l-.1-.4-.4-.6-.9-1.1-.2-.4-.2-.1-1-.2-.3-.1-.2-.3-.1-.4-.1-.4-.1-.4-.4-.5-.6-.5-.7-.4-.5-.1-.6-.2-1.5-1.8-.2.3-.4-.5-.2-.1-.1.1v-.4l-.2-.3-.2-.1h-.3l-.3-.1-.3-.5-.3-.2h-.2l-.3-.1h-.1l-.3.3-.1.1h-.1l-.4-.2-.2-.2-.1-.2-.2-.2-1.8-.9-1-.2-.3-.3-1.3-1.6-2.5-2-1.1-1.3-.8-.4-.3-.5-.4-1.3-.4-.7-.5-.4-.5-.3-.7-.5-.7-.9-.3-.2-.5-.2-2.4-1.5-.3-.5-.2-.7-2.5-2.8-.5-.5-.6-.2v-.1l-.3-.3-.6-.3-.2-.4-.3-.6-.2-.3-.4-.4-1.4-.9-.5-.2-.8-.1-.6-.3-1-.6-1.4-.4-.7-.3-.3-.5-1.1-.6-.2-.2-.1-.2v-.2l-.1-.4-.3-.6-1.4-1.6-.3-.6-.8-2.5-.6-1.3-.9-1.3-1.1-1.1-1.1-.4-1.4.1-.6-.1-.5-.5-.3-.1H350.3l-2.4-.1H321v16.6H233l-1.9-.2-.9-.3-3.2-1.2-4.9-1.9-3.2-1.2-1.6-.6-12.9-4.7-12.9-4.7-12.9-4.7-12.9-4.7-12.9-4.7-12.9-4.7-12.9-4.7L112.9 9h-.1l.4-.5.4-1.5.1-.8-.3-.8.5-1 .1-.2.8-.7.2-.2.4-.7.2-.6.3-.9V1zM36.1 11.9l.1.4.1.1.1.3.1.4h.1v-.3l-.1-.3-.1-.3-.1-.2-.2-.1zm77.8 23l-.4 1.8 1.1 1.5 1.5.7.7-.5.2.3.3.3.4.1h.4l-.5-1.1-1.3-1.6-1.4-1.3-1-.2zM72 83.1l-.2.2v.2l.2.1h.4v-.2l-.2-.3H72zm49.2 14.7l.1.1h.1l.2.1.1.2h.1V98l-.2-.1-.4-.1zm4.3 3.9l.1.4-.2.3.5.3h.3l-.1-.4-.1-.6h-.5zm26.8 15.3l-.4.2.2.4.3-.2.1-.2-.2-.2zm1.4.6v.2l-.4.2-.4.2-.3-.2v-.2l-.4.1.1.6.1.6-.3 1-.4.8-.2.9.1.8.6.5.3.4.1.3.5.4.1.4.2.2.3.6.4.2.2.4v.7l.3.4.4.3 1-.1.5.5.2.5-.1.4.8 1.1.6.5.8.4.2.6.6.3.5.2.2.4h.4l.3.4.5.6.4.5.2.6.2.2.2.4.5.4.4.1.5.3.3.7 1 .4.4.5.3.1.4.5.3.1v-1.1l-.1-.4.5-1-.5-.1-.2-.1-.5-.2-.3-.1-.3-.6.1-.3-.1-.3-.4-.7-.1-.3v-1l.1-.8.2-.4-.2-.2v-1.1l-.2-.4v-.8l.3-.6-.5-.5-.7.1-.5-.1h-.5l-.6.1-.2-.1h-.4l-.3.3h-.4l-.3-.3-1.2-.2-.8-.6v-.9l-.2-.3.1-.6.4-.5.4-.3-.5-.4.1-.3-.4-.7-.4-.5.1-.3-.3-.3-.1-.3-.7-.2-.4-1-1-.9-.4-.5-.7-.1-.4-.1v-.4h-.4zm33.5 9.9l-.1.1.1.2h.1v-.1l-.1-.2zm6.2 1l-.5.2-.2.3-.4.4-.6.1h-.8l-.6.1-1.2 1h-.7l-.5-.5-.5.4-.3.4-.3.5-.2.4-.4 1.4-.3 1.5-.1 1.6.1 1.5.4.3.1.4-.2.4-.1.3-.1.4-.2.3-.2.1-.5.7-.9.6-.9.6.4.3h.3l.4.4.9.4.8.5v.3l.9.1v.5l.4.2h.6l.3.2.4-.2.4.3.6.7h.4l.3.5.4-.2.6.1.5.6.7-.6.5-.2.3.2.3-.2-.2-.5-.4-.1-.1-.8.2-.6.3-.5.2-.7.5-.7-.2-.5.5-.5.4-1.8.1-1.2.5-1.2-1.2-2.7-1.2-1.5.1-.6-.1-.4.1-.4.1-.3.1-.3-.1-.2-.3-.4-.2-.6.5-.5.1-.3zM4 130.6l-.7.1-.4.5-.9.3-.6.5-.3.7-.1.6.2.6.1.5.1.6.7.6.3.4.3.5.3 1-.3.6.5.5.2.7-.2.6.2.6.3.8-.4.2-.1.4.3.3v-.4h.2l.4-.3.6.1.8-1.1.1-1.6-.2-1.3.3-.7-.3-1.7-.7-1-.5-.3-.4-.7-.2-.7.1-.5.4-.5.5-.6-.6-.3zm149.8 3.4l-.2.1.1.2.1.3.2.1v.5h.1v.1l-.1.2.3.3-.1.2.2.1h.3v-.1l-.2-.1v-.2l-.1-.1v-.2l-.2-.2.1-.3v-.2l-.1-.1v-.2l.1-.1v-.2l-.2-.1h-.3zm13.6.9l-.2.2.2.1.2-.1v-.2h-.2zm-12 1.7l.1.2.1.2h.1l-.1-.3-.2-.1zm-1.3.8l-.2.2.1.1.1.1.1-.1.1-.1-.1-.2h-.1zm.9.9V138.6h.2v-.1l-.1-.2h-.1zm14 2.7v.2l-.1.2-.1.1h-.1l.1.1h.1v-.1l.2-.2.1-.1-.1-.1-.1-.1zm1.8 2.7l-.2.1.2.1h.1l.1-.2h-.2zm13.3 3.3l-.4.2-.7-.1-.2.1-.4.1v.8l.4 1-.1.2.3-.1.7.2.6-.2.2-.5v-.5l.1-.4-.1-.2-.1-.4-.3-.2zm8.3 0l-.1.2.2.3v.3l.2.1v-.2l-.1-.1v-.1l-.1-.2-.1-.3zm-21.1.1l.2.1v.2l.4.1-.2-.3h-.1l-.2-.1h-.1zm1 .8v.3l.1.2.3.1.4.2.3.1v-.4l-.7-.1-.4-.4zm1.2 1.1l.3.3.3.3.1.2.2.2v.3l.8.1.4.5.6.3.4.3.2.8h.2l.1.2.2.2.4-.2.3-.3-.2-.2-.2-.3-.4-.2-.2-.3-.2-.2-.5-.5-1.7-1.2-1.1-.3zm18.5 10.4l-.3.2.1.3.5.2-.1-.2.1-.3-.3-.2zm-91.6.4l-.6.3-.5.4-.2 1.1-.2 1 .2 1.3.5 1.1-1.1 1.5-1.9 2.4-.5.3-.2 1.2.3.4.4-.5.4-.1.6-.3.7.3.6.6.3 1.1.2.2.4-.1.2.3.3-.1.4-.2.3.1.2.1.2.1v-.2l.1-.2-.3-.6.2-.5-.2-.6.2-.3-.1-.4.3-.3v-.3l.4-.2.3-.4-.2-.4.2-.7-.1-.8-.5-.7v-.8l.3-.9-.1-.9-.3-.5.1-.3-.3-.2-.4-1 .1-.7-.7-.6zM88.2 162l-.1.2.1.2.3.3.4-.1.1-.3h.4l-.1-.2h-.4l-.3.1-.1-.2h-.3zM221 173.7l-.2.4.2.3.2.4.5.2-.2-.6-.5-.7zM100.3 177l-.1.3.4.1.5.2.3.4.1.7h.2l.3-.1.1-.3-.1-.3-.2-.2-.5-.3-.3-.3h-.3l-.4-.2zm105.2 15.8l-.7.1-.1.5.4.3h.4l.6-.1.1-.3-.2-.3-.5-.2zm40.5 1.3l-.1.4-.2.8-.1.9.1 1.4.5.5 1.7.7.1-.6-1.4-.4-.6-.7-.1-1.6.1-1.4zm-47.1 5.6l-.6.8.4.4.3 1.5.6.1.5-.5.2-.8-.6-.9-.8-.6zm64.7 6l-.3.1.3.3.5.1.9.4.7.5.7 1h.3l-.6-1.1-.9-.6-1-.5-.6-.2zM163 218.3l-.5.3-.4.2-.2.4.2.1.3.1.8.2.9.3.9.4.3.2.3.2h.2v-.2l-.2-.5-.5-.7-.4-.5-.2-.1h-.2l-.3.3-.2-.1v-.2l-.2-.2-.3-.1-.3-.1zm56.5 3.2v.3l.1.1.1.3.1-.1v-.2l-.1-.2-.2-.2zm5 17.8l-.3.4v.2l.2.2v.1l-.2.3.2-.1h.5v-.2l-.1-.1.1-.1.1-.3-.1-.3-.1-.1h-.3zm6.9 2.3l-.5.1-.2.3-.7.2-.6-.2-.2-.3-.3.2.1.4-.9.2-.4.1v.3l.2.4-.1.7.1.6-.2.3-.4.3-.3.5-.1.4-.3.5v.4l-.3 1.2v.4l-.4.7v.3l.1.4v.3l.3.2.2.1.3.4.1-.2-.1-.6v-.7l.2-.3.3-.1.2-.3-.1-.5.2-.6-.1-.2.3-.3.6-.7.4-.7.3-.3.3-.5.1-.4v-.2l.2-.2h.3l.3.4.2.2.2.3h.2l.2.2.1-.2v-.4l-.2-.1v-.4h-.3l-.1-1.1.4-.9.4-.6zm-6.3 9.1l-.1.1.1.3v.7l.1.3.3.2h.1v-.2l-.2-.1v-.3l.1-.1-.2-.3.1-.1-.2-.1v-.4h-.1zm7 3.4l-.2.1v.2l-.6-.1.1.3.1.2.3.5-.1.4.1.2.3.4h.2l.2-.3.2-.3.1-.3-.2-.6-.4-.3-.1-.4zm8.3.1l-.3.1-.3.5-.4.7v1.1l.6 1.4.6.3.4-.1-.2-1.7-.2-1 .1-.6-.2-.1-.1-.6zm-41.9 7.8l-.1.2.1.8-.1.6-.3 1.4-.1 1.5-.2 1.1-.3.6-.1.5.2.3.2.2h.2v-.6l.1-.5.3-.4v-.6l-.1-.7v-1l.2-.7.1-.7v-1.9l-.1-.1zm459.7.8l1.3.7.2.2.2.2.3.2 1.2.2.3.4-.1.5-.7.2-.2.1.1.4.2.3.1.3-.1.2v.9l.1.3v1.1l-.6 1.4-1.4 2.4v-.7h-.2l-.6 2.8.1.3-1 1.9v.7l.1.8v.7l-.7 1.1-.1.3-.1 1.3-.1.3-.2.4-.2.4-.4 1.2-.7 4.5-1.5 5.7-.7 5.9-.7 4.7-1 14.8-.2.4-.2-3-.2-1.5-.5-.7.4-.7.2-1 .1-1-.3-.8-.2.5-.3-.3-.2-.7.1-1h.2l.1.3.1.3.1.2.1.2.2-.5.2-.6.1-1.9.3-1.3.4-6.4.3-1.2.1-.6-.2-.7-.5.1-.5.4-.4.5-.5.3h-.6l-.6-.1-.4-.3-.2-.6v-.7l.4-1.4-.3.3h-.3l-.2-.3-.1-.5.3-.3.4-.2.2-.3-.2-.5.4.2.4.2.4-.1.3-.3.3.1.1.2v.3l.1.3-.2.2-.1.2h.1l.3.3.3.8.2.1.4.3.3.1.1-.2.2-1.3 1.1-3.6.2-1.9v-.7h-.2l-.2.9-.5-.2-.3-.8.3-.4.4-.4-.2-.9-.5-1.4.1-.4.2-.2v-.2l-.4-.1-.3-.2-.2-.5v-.6l.1-.3h1.6l.4-.1.2-.2.4-.7-.2-.4.2-.3h.3l.4.3v-.6l-.1-.3-.1-.2-.6-.4-.5-.2-.4-.2-.4-.1h-.2l-.3-.3-.2-.2v-.3h-.2l-.5.1-.5.2.2-.2.5-.8.4-.8.3-3.5.5-.7.1-.4v-.8l-.3-1.2-.3-1-.3-.2-.4.1-.5-.1-.4-.3-.5-.1h-.2l-.5.2.5-.4.3-.2h.4l.7.3.5.2.2-.2v-.4l.1-.5.2-.5.2-.2.2-.1.1-1.3-.2-.4v-.2l.3-.1.4.1.2.1h1.3l.2.3-.1.3-.2.3-.4.1.5.3-.4.2v.2l.4.1.4.1h.3l1-.2.3.3.1.6.2.3h.4l.3-.3.2-.5v-.4l-.5.1v-.8l-.1-.5.3-.5.6-1 .3-.6-.6-.2-.5-.6v-.7l.7-.4zm-362.4.7l.2.5.4.2h2.3l.2.1.3.1h.2l.9.4 1.1.7 1 .5.6-.4-.4-.3-.6-.9-.4-.2-1.7-.6-.5-.1h-3.6zm-52.8 4.7l-.2.2h-.6l-.6.6v.4l.1.4.1.2h.3l.2-.1.1-.3.2-.6.3-.5.1-.2v-.1zm-45.6 1.6l-.2.4v.9l-.6 2.5-.9 3.3-.5 1.5-1.6 4.7-.6 1.5-.4 1-.3.1-.1.1v.1l-.1.4 1 .6.1.6.3.3.1-.1-.1-.6v-.3l.1-.2.2-.2h.8l.4.1.2.1.5.3.5.4.6.7.3.4.2.6.1.6-.1.6-.2.3h-.2l-.2-.1-.2.1-.1.3-.2.3.1.2.4.2.4.8h.3l.3.2.4.5.3.5.2.7-.1.2.3.2.8.3.2.1.1-.4-.2-.5-.2-.2v-.4h-.3l-.5-.8-.3-.3-1-.6-.1-.4-.1-.2.1-.3.3-.3.1-.2.4-.5-.3-.7-.1.1-.1-.2V288.5l-.3-.3-.7-.8-.1-.5-.3-.5-.1-.1h.2v-.1h-.2l-.3-.4-.3-.2-.3-.2-.1-.2v-.5l-.1-.3.1-.3.2-.4h.7l.1-.2-.2-.3-.2-.3-.2-.9.3-.2V280.4l.3-.5.2.2.3-.2v-.4l-.1-.3-.1-.4v-.4l-.1-.4-.2-.5.3-1 .4-2.3.4-.8.5-1.4.2-.6-.1-1.6h-.4zm45.4 2.1l-.2.2v.2l.1-.1.1-.1v-.2zm-.3 3.5l-.1.1-.1.2v1.2l-.1.3v.5l.1.3h.2l.3.4h.4l.2.3.1.8.3.3.1.3v.3l.2.5.3.2.3.5-.2.2v.2h.7l.3.1v.2l.5.2.3.3.4.2v.3l-.4.4.2.1.2-.3.3-.1.3.1.6-.1.3-.2-.3-.3-.4-.8-.2-.5-.2-.3-.3-.7.1-.9-.1-.6-.2-.3v-.3l-.3-.2-.2-.2-.1-.2-.6-.3-.9-.3-.8-.1-.5-.4-.4-1-.2-.3-.1-.1zm4.3 9.1l-.5.4-.1.1.2.3.2-.1h.2v.3h.2v-.2l-.1-.2-.1-.1.1-.4-.1-.1zm5.4 8.8l-.1.3-.5.4.1.3.3.1-.1.2.1.3.3-.1v.4l.3.2h.3l-.2.2-.4.2-.1.2.3.2-.1.3.1.5.1.3.2.2.3.2.1.1.2.1v.2l-.5.2.1.2.1.4.2-.3.2.1.2.2-.1.4.1.2.1.3.6.1.2-.6.1-.3.3-.2-.1-.5.2-.4h.4l.2-.4-.3-.3-.2-.4-.1-.5h-.3l-.3-.4-.7-.5-.5-.1.1-.5-.1-.4-.4-.3-.2-.3-.1-.4-.4-.1zm-50.1 2.2l-.6.4.2.3.8.3 1.1.5.4.5.4.1.2.3 1.2.6.8.8 1.2 1 1.5 1.1.6.6 1 1.4-.1-.7.3-.4.3-.6-.2-.4.2-.5-.1-.3-.3.1-.6-.6-.9-1.7-.7-.6h-.7l-.7-.2-.1-.4-.3-.2-.2-.5v-.4l-.4.1-.4-.4-.5.1h-2.9l-.5-.3zm13.4 5.1l-.7.1h-.5l-.9.1-.5.1-.4-.2-.2.3-.3.3.3.3.8-.2 1.3-.3 1.1.1.9.1 2.2 1-.1-.2-1.3-1-1-.3-.7-.2zm51.3.2v.5l-.1 1.2.7 1.4-.2.3-.1.3.4 1.1.4 1.2.5.8.4.6-.1.3.4.1 1 .2.5.1.3.1.2-.6-.3-.6v-.4l-.5-.9-.4-.5-.2-.2-.5-1-.4-.5-.4-.8-.3-.7-.2-.3-.2-.4-.4-.4v-.5l-.3-.4h-.2zm382.8 55l-.3.4-.6 1.5-.2.3-.5.5-.2.4.9-.4.6-.9.4-1.1-.1-.7zm3.2 31.1l.2 1.3.5 1.6.8 1.1.9.2.3-.4-.5-.5-1.1-.8-.3-.6-.1-.8-.2-.6-.5-.5zm-282.9 2.9l-.3.2-.2-.1-.2.5-.1.4.3.7.7-.4-.2-.3.2-.2v-.4l-.2-.1v-.3zm.7 2.7l-.6.2.3.3v.7l-.2.1.5.7.2.4.2.4v.2l-.1.3 1.3.8 1.2.5h.2l.2.2-.1.3v.1h.2l.1.1v-.3l.4-.4v-.2l.3-.1-.1-.3-.1-.3.1-.3.3-.2-.3-.2-.2-.2-.2-.3-.4-.4.2-.7-.5-.4-1.2-.5-.4-.3-.7.1-.6-.3zm625.1 5.6V398.7l.1.4v.2l.1.4.2.6.1.2-.1-1-.2-.9-.1-.3-.1-.2zm-619.4 1.3l-.4.4-.6.5.4.6.6.1.5.4h.5l.8.4.5.1.1-.4.1-.5.6-.3v-.3l-.3-.2-.1-.4h-.9l-.7-.2-.4-.2-.3.1-.4-.1zm6.3 5.4l-.6.7.3.5.7.3.3-.1.3.1.1-.6v-.7l-.1-.1-.1-.1-.3.1-.6-.1zm615.1 1.6l-.3.5.4 1 .6 1 .6.5-.8-1.5-.4-.8-.1-.7zm-.2 23.4v.1l-.2.5-.5.4-.6.2-.4-.1-.7.4-.4.1-.3-.1-.8-.3-.3-.1-.3-.1-.2-.1h-.3l-.2.2-.5.4-.2.1-1 1.4-1.3 2.3-.4 1.3-.1 1.5.2.7.4 1.5.1.6.2.3.5-.2 1.7-1.5.3-.4.1-.2.1-.4.3-.2.3-.2.2-.2.1-.5.8-1.5.4-.6.9-.8.6-.5.4-1.1 1.1-2 .3-.5.1-.1-.1-.2-.1-.1h-.2zM969 471.4l-.2.6.1-.1.3-.5h-.2zm-729.9.2v.5l-.2.3-.4.8-.1.3v.3l.1.2.1.1.2-.4.3-.3.8-.6-.3-.7-.3-.3-.2-.2zm-5.9 16.1l-1.2 1-.5.7-.2.8-.2.5v.3l1.4.6.5.2.4.4.5.5.5-.3h.7l.5-.1.4-.5v-.6l-.2-.6-.4-.5-.5-.2.2-.7-.5-.7-.7-.6-.7-.2zm612.8 2.5l-1.4.7-1.5.5-1.2.8-1.7.9-.9.2-1.4.6-.3.2-.5.5-.1.3.2.1h.6l.9-.2 1-.4 1.7-1.1-.7 1.2 1.1-.2.9-.8 1.2-1.7h.5l1.1-.4.6-.1-.3.1-.2.1-.2.2-.1.3.4-.1.4-.1.6-.5.1.1.2.1v-.5l-.1-.3-.2-.3-.2-.2h-.5zm135.1 1.8l.3 2.7-.1.9.4-.7v-.9l-.2-1.6-.4-.4zm-1.3 5.7l-.3.3-.2.3-.1.2-.1.3-.2 1.9-.2.8-.1.3-.3.5-.6.6-.1.3h.2l1.2-1.8.4-1.1-.2-1.5.6-1.1zm-865.6 7l-.7.4v.4l.5.2 1.1-.1h.4l.3-.2.1-.1.1-.3v-.2l-.1-.1h-1.7z"/><circle cx="832.1" cy="533.4"/><circle cx="832.6" cy="533.3"/><circle cx="832.6" cy="533.5"/></svg>