<svg width="640" height="480" xmlns="http://www.w3.org/2000/svg"><path fill="none" stroke="#593718" stroke-width="3" stroke-dasharray="null" stroke-linejoin="null" stroke-linecap="null" d="M67.9 155.5l-.9 11.9M67.5 166.4l-4.6 7.8M63.3 173.6l-3.5 2.8M60.3 175.1v7.3M59.8 181.1l2.7 3.4M61.9 183.5l.4 6.8M62.8 189.5l-2.7 3.8M60.5 192.5v9.7M60.2 201.2l3.7 6.2M63.6 206.4l-.1 8M63.2 213.2l3.4 3.3M65.1 216.3l5.1-1.9M68.4 213.6l1.9 4.9M70.4 217.6l-1.4 4M70.2 222.1l-4.2-2.5M67.7 220.3l.9.8M67.3 219.6l-1.9 9.4M65 227.6l6.2 5.1M68.3 230.7v-.1M70.6 231.3l-1.3 3.3M70.8 234.6l-4.7-.8"/><path fill="none" stroke="#593718" stroke-dasharray="null" stroke-linejoin="null" stroke-linecap="null" d="M58.4 237.4h-.1"/><path fill="none" stroke="#593718" stroke-width="3" stroke-dasharray="null" stroke-linejoin="null" stroke-linecap="null" d="M68.1 233.8l-1.5 3.3M66.5 235.9l10.8 24.6M77.7 258.9l-3.6 3.8M73.7 261.1l1 1.2M74.2 262.2v3.5M73.7 264.8l5.1 4.9M77.9 269l5.5 2.5M82.7 271.1l5.2 4M87.4 274.2l.9 5M86.727 278.364l8.364-.455M93.818 277.455l2.818 3M96.364 279.273v3.818M95.545 282.091L99.818 285M99.182 284.364l6.636 10.727M105.545 294.273l.819 9.545M105 302.636l28.636 3.637M132.625 307.25l5.125-1M134 308.25l-1.125 3.375M132.25 310l42 25.5M173.625 335.375l33 5.375M205.375 341.875l2.375-6.25M207.125 336.375l4.5-2.25M210.625 334.25L225.75 337M224.75 336.5l19.5 20.5M243.75 356l3.25 13.375"/><path fill="none" stroke="#593718" stroke-width="3" stroke-dasharray="null" stroke-linejoin="null" stroke-linecap="null" opacity=".5" d="M246.625 368.375l13.75 5.875"/><path fill="none" stroke="#593718" stroke-width="3" stroke-dasharray="null" stroke-linejoin="null" stroke-linecap="null" d="M246.25 368.25l18.125 9.875M263.07 378.131l3.5-1.499M265.959 377.187l5.499-8.498M270.68 369.466l4.832-2.333M274.568 367.3l10.832 1.666M284.455 368.522l7.999 7.665M292.011 375.114l2.908 8.725M294.374 382.567l4.908 9.816M298.737 391.474l6.907 9.453M305.281 400.018l1.454 7.09M306.19 405.654l6.18 10.907M311.825 415.833l9.817 4.545M321.096 420.378h7.09M326.732 419.469l2.181 3.999M327.459 422.741l6.362.182M333.094 424.377l-.364-5.817M332.912 419.287l-1.818-14.361M330.913 406.562l6.18-15.27M336.366 392.201l7.453-6.18M342.729 386.748l8.725-1.818M349.091 385.112l6.908.182M354.363 385.839l2.908-3.272M357.09 382.749l4.908-4.363M361.634 379.658l-1.818-7.998M358.907 373.296l5.999-2M363.089 369.842l1.454 3.636M363.816 375.114l8.725-3.818M371.996 371.114h14.179M385.63 370.751l5.09 3.635M389.629 374.205l6.363-1.273M395.446 372.75l4.181-2.908M397.446 369.66l5.817 7.817M402.354 376.931l5.999 1.637M407.262 378.386l6.363-2.545M412.171 376.204l7.089.909M417.806 377.113l4.181-1.09M420.896 376.931l-.182-5.635M421.078 372.569l5.454 3.999M424.895 375.841l4.909 3.454M428.349 379.658l4-2.545M430.894 377.477l.546-4.727M431.985 374.205l-7.09-2.727M425.623 373.478l-.182-3.454M425.259 370.569l4.363-6.908M428.895 363.843h7.271M434.167 364.207l5.09-5.818M438.166 359.117l6.544.727M443.619 359.662l6.363-3.636M448.164 356.39l13.089-2.363M460.525 353.845l4.181 1.636M462.889 355.844h9.271M470.524 355.844l4.908 7.454M475.068 363.116l4.545 1.272M478.522 363.843l8.544-7.817M485.794 356.208l7.634 1.272M491.611 357.299l8.18 5.817M498.337 362.389l9.634 6.18M507.971 367.66l-.181 9.09M508.517 376.204l-2.727 3.272M504.881 378.386l2.181 4.363M505.46 382.716l6.133-2.444M510.926 378.983l1.333 4.044M512.215 382.45l-.489 7.377M511.993 388.761l3.777 5.421M514.615 393.605l4.755.222M517.993 392.716l1.288 5.377M518.348 397.116l4.267 1.822M521.815 397.782l1.377 8.4M521.859 405.16l7.911 1.066M528.703 405.649l5.422 7.91M533.236 412.982l4.622.889M537.192 413.826l6.71-1.111M542.836 413.382l2.622-4.578M545.303 409.719l-1.543-20.513M544.16 390.006l-12.342-18.227M532.104 372.522l-.629-6.914M531.704 366.351l-9.314-12.8M522.619 354.18l-4-13.828M519.854 341.02h-3.375M517.604 340.77l-.25-12.998M516.979 328.646l2.375-3.124M519.479 326.022l1.125-4.125M520.104 321.897l3.874.25M522.603 322.022l2.75-7.249M523.978 315.648h4.75M527.978 316.023l4.749-3.625M532.352 313.648l-.25-4.374M531.602 310.399l6.5-5.125M537.352 306.274l-.125-5.999M536.852 301.275l7.249-9.249M543.101 292.651l8.499-2.375M550.35 291.776v-6.624M549.725 286.152l8.499-8.249M557.474 278.278l6.874-2.875M563.973 276.653l-.125-4.5M564.723 273.153l-5.249-6.124M558.349 267.154l9.124-1.75M566.098 266.029l3.625-2.999M570.223 263.78l-1-4.25M569.348 260.03l-3.125-1.125M570.223 260.53l-5.125-2M565.848 258.53l-6.249.5M559.599 258.405l4.374-3.249M563.223 255.906l2.625-3.5M565.973 253.781l-3.5-7.624M563.348 246.782l-5.749-.625M558.724 246.657l-3.375-3.875M555.224 244.407l2.5-3.5M558.099 242.282l-3.874-4.874M552.994 236.896l5.086-.976M557.974 235.283l-12.498-5.124M545.726 228.784l9.373.75M553.975 229.909l-2.125-5.5M551.6 225.409l-1.625-10.623M550.725 214.786l6.124 11.373M556.474 225.909l6.749 4.375M561.599 230.784l5.124-2.625M567.098 229.159l-.125-5M567.098 225.034l-.375-3.874M567.598 221.91l-8.374-9.249M559.349 213.411l2.5-2.75M560.849 209.786l5.999 4.625M566.223 215.661l4.499-7.749M570.348 208.661l1.249-6.124M571.597 203.787l.25-6.124M572.097 198.538l-1.25-5.25M571.847 194.663l-3.749-2.624M567.723 193.413l3.874-4.124M570.348 188.414l6.249 2M575.222 190.539l13.498-8.749M589.845 182.165l-3.749-2.5M587.345 179.79l-12.623 5.999M573.222 185.289l11.374-9.498M583.721 175.916l5.874.249M588.345 176.165l5.5-1.999M593.095 175.041l.75-6.375M593.095 169.041l3.624-.125M596.844 167.292l2 5.749M597.719 172.291l5.499.125M603.968 173.416l-2.499-4.75M600.344 169.416l5.999-3.249M605.718 166.917l2.125-3.625M607.968 164.542l-3-4.999M606.218 160.417l-4.499.25M601.094 159.793l2.124 3.374M601.594 164.417l-9.249-5.749M593.72 160.043l1.374-6.125M596.094 154.918l-3.999-1.875M591.97 154.418l3.124-12.873M594.719 142.295l10.374-11.374M604.468 131.796l1.25-6.499M605.093 126.422l14.248-13.249M619.466 114.298l-2.874-3.874M617.717 110.924l-5.125-.5M614.217 111.549l-1.75-5.375M613.592 107.174l-5.749-.625M608.093 107.799l-1.625-3.625M606.718 104.799l-1.5-4.624M605.468 101.8l-.375-8.499M605.218 94.176l-3.749-6.999M601.719 88.176l-1.25-1.999M600.844 87.052l-4.75-1.375M597.094 85.052l-5.999 5.374M592.72 90.301l-2.375-1.625M591.095 88.801l-4.625.125M586.096 87.427L582.971 98.3M583.221 97.55l-.25 8.624M582.721 105.424l1.875 9.249M584.971 113.298l-4 7.624M581.096 120.422l-3.124 3.625M578.222 123.297l-.5 4.125M578.971 126.422l-11.373 1.25M568.473 127.422l-21.998 7.374M547.6 134.046l-13.373 16.123M534.727 148.419l4.249 3.5M538.227 150.794l.125 9.623M538.976 159.043l-11.248 8.749M529.103 166.542l-16.373 1.375M513.105 167.042l3.874 9.498M517.104 174.916l-25.872 21.122M492.732 194.788l-7.874 4.25M486.608 199.163l-7.749-.375M480.359 199.163l-5.625-2.75M475.609 198.413v-6.499M474.984 192.913l6.75-8.249M481.859 185.789l-.375-7.124M481.859 179.165l-3.875-4.249M478.484 175.416l-.75-8.749M478.609 167.542l-4.125-2.75M475.359 164.417l-7.749 9.999M468.235 175.666l-3.874-2.75M464.611 173.916l-1-3.75M462.236 171.041l7.374-8.874M468.86 163.792l.25-6.499M470.235 157.668l-3.25-2.75M466.985 155.418l.625-5.499M468.235 151.669l-8.624-2.125M461.111 150.419l-7.374-4.75M455.362 145.794l-3.5.5M452.862 145.794l-3.999 2.625M449.363 147.294v4.625M450.113 151.044l-2.75 2.624M447.613 152.543l-.375 7.624M448.613 160.792l-7.374-1.374M442.738 158.543l-1.499 4.249M441.364 161.917l.375 5.875M441.989 167.167l-2.25 4.374M439.614 170.666l.375 7.499M439.614 176.665l4.624 8.374M444.238 184.164l-.625 11.624M444.238 194.163l-1.999 4.5M442.363 197.663l-.749 5.124M441.739 201.662l-2.625 2.625M440.864 203.287h-7.374M434.739 204.287l-6.874-11.999M428.115 194.288l-.875-20.497M427.115 175.291l2.375-5.5M429.365 171.291l2.125-13.498M431.615 157.543l-8.124 10.124M424.241 167.417l-.875-6.875M422.991 161.417l9.374-13.623M431.74 148.294l4.874-1.75M435.864 147.544l1.375-3.874M435.864 143.92l5.75.374M440.989 144.045l5.374-2.625M444.863 140.42l4.625 1.875M448.738 142.42l8.249-1.75M456.237 141.295l2.624-3.25M457.987 138.42l-1.625-5.749M457.862 133.546l-10.249 2.125M449.488 135.921l-1.75-5M449.113 132.046l-10.999 3.75M439.239 135.171l-2.5 3.124M437.614 137.795l-8.749.125M430.615 138.295l-7.749-4.124M424.116 134.046l-7.624 2M418.491 136.295l-.999-4.749M416.867 133.171l3.999-4.75M422.241 128.921l-4.499-2.874M419.241 125.672l-8.998 8.124M410.617 133.671l-1.624 2.125M409.868 135.421l-9.999 3.124M400.994 138.295l-11.374-1.125M390.245 136.42l-8.499 4.5M380.621 141.045l15.498-16.248M395.619 125.172l11.249-4.875M407.368 120.422l-10.124-.125M398.369 120.422l-3.125-2.874M396.744 117.548l-4.749-.125M393.37 117.048l-3.5 3.124M390.745 119.923l-5.999-.375M385.621 120.048l-3.5-3.375M383.621 116.798l-4.5 2.375M380.621 119.298l-2.874-4.75M378.871 114.923l-8.249-1.125M371.997 113.423l-3.124 2.5M369.623 116.048v-.125M370.793 115.662l-5.749-.875M365.998 115.048l-8.874-6.374M358.18 108.98l-84.166-2.908M274.559 106.617l-52.536-7.999M224.023 98.982l-55.445-12.18M170.033 87.166l-42.538-11.998M129.676 75.895l-19.269-7.635M111.498 68.442l1.454 8.362M113.861 75.714l-3.454 4.908M110.771 79.167l1.09 8.544M112.043 86.802l-3.454 3.454M108.771 89.347l-2.181 7.09M107.862 98.255l-6.544-1.636M102.409 97.528l1.818-7.272M103.681 90.983l3.818-5.453M107.68 86.984l-2.908-3.817M105.863 84.257L94.41 73.169M96.046 73.169l-3.817 2.181M92.774 74.805L91.32 91.529M91.32 90.983l.909 7.817M92.41 97.891l-3.272 6.363M87.866 104.436h2.545M90.411 104.617l-2.363 10.18M88.048 114.252l-10.544 19.451M78.231 132.43l-9.634 14.907M68.597 146.61l-.546 9.271"/></svg>